<svg xmlns="http://www.w3.org/2000/svg" xmlns:xlink="http://www.w3.org/1999/xlink" width="500" zoomAndPan="magnify" viewBox="0 0 375 374.999991" height="500" preserveAspectRatio="xMidYMid meet" version="1.0"><defs><g/></defs><rect x="-37.5" width="450" fill="#ffffff" y="-37.499999" height="449.999989" fill-opacity="1"/><rect x="-37.5" width="450" fill="#ffffff" y="-37.499999" height="449.999989" fill-opacity="1"/><path stroke-linecap="butt" transform="matrix(0.75, 0, 0, 0.75, 68.296874, -31.204275)" fill="none" stroke-linejoin="miter" d="M 4.166668 138.293209 L 160.182303 138.293209 C 185.713555 138.293209 208.093764 142.251543 227.322932 150.173419 C 246.625017 158.032794 262.640643 168.694253 275.369811 182.173421 C 288.166686 195.64738 297.75002 211.324464 304.114604 229.199465 C 310.479188 247.079675 313.66148 266.006759 313.66148 285.980719 L 313.66148 294.308845 C 313.66148 314.288013 310.479188 333.215097 304.114604 351.090098 C 297.75002 368.970308 288.166686 384.642184 275.369811 398.121351 C 262.640643 411.595311 246.625017 422.293228 227.322932 430.215104 C 208.093764 438.074479 185.713555 442.001563 160.182303 442.001563 L 4.166668 442.001563 L 4.166668 350.074473 L 28.338544 350.074473 L 28.338544 225.647382 L 4.166668 225.647382 Z M 146.87501 337.579681 L 151.447927 337.579681 C 162.281261 337.579681 170.307304 333.418222 175.520846 325.090097 C 180.802096 316.756763 183.442721 306.095304 183.442721 293.090095 L 183.442721 282.631761 C 183.442721 269.626551 180.802096 258.959884 175.520846 250.631758 C 170.307304 242.303633 162.281261 238.136966 151.447927 238.136966 L 146.87501 238.136966 Z M 146.87501 337.579681 " stroke="#f77f00" stroke-width="16.642281" stroke-opacity="1" stroke-miterlimit="4"/><g fill="#003049" fill-opacity="1"><g transform="translate(68.296874, 300.295703)"><g><path d="M 3.125 -227.78125 L 120.125 -227.78125 C 139.269531 -227.78125 156.070312 -224.816406 170.53125 -218.890625 C 184.988281 -212.960938 197 -204.953125 206.5625 -194.859375 C 216.132812 -184.773438 223.3125 -173.023438 228.09375 -159.609375 C 232.875 -146.191406 235.265625 -131.992188 235.265625 -117.015625 L 235.265625 -110.765625 C 235.265625 -95.796875 232.875 -81.597656 228.09375 -68.171875 C 223.3125 -54.753906 216.132812 -43 206.5625 -32.90625 C 197 -22.820312 184.988281 -14.816406 170.53125 -8.890625 C 156.070312 -2.960938 139.269531 0 120.125 0 L 3.125 0 L 3.125 -68.953125 L 21.21875 -68.953125 L 21.21875 -162.25 L 3.125 -162.25 Z M 110.140625 -78.3125 L 113.578125 -78.3125 C 121.691406 -78.3125 127.722656 -81.429688 131.671875 -87.671875 C 135.628906 -93.921875 137.609375 -101.929688 137.609375 -111.703125 L 137.609375 -119.515625 C 137.609375 -129.285156 135.628906 -137.289062 131.671875 -143.53125 C 127.722656 -149.769531 121.691406 -152.890625 113.578125 -152.890625 L 110.140625 -152.890625 Z M 110.140625 -78.3125 "/></g></g></g></svg>