<?xml version="1.0" encoding="UTF-8"?>
<svg id="Capa_1" data-name="Capa 1" xmlns="http://www.w3.org/2000/svg" viewBox="0 0 594.71 841.12">
  <defs>
    <style>
      .cls-1 {
        fill: #fff;
      }
    </style>
  </defs>
  <path class="cls-1" d="M594.71,0v841.12H0V0h594.71ZM33.37,346.03v29.6h8.07v41.44h-8.07v30.67l58.95.02c7.33-.76,14.68-2.64,20.91-6,1.04-.56,7.17-3.7,5.71-5.32-2.11-1.04-2.97.94-4.55,1-3.67.16-6.19-2.25-8.65,2.76-3.43-3.38-7.68.88-11.42,1.48-3.27.53-6.88-1.69-9.56,1.19l-.81-3.76-1.07,3.76-.54-5.37c1.62.11,1.52,1.78,3.53,2.11,9.18,1.52,17.3-3.82,25.95-5.79.94-.21,1.83.39,2.83.2,2.14-.42,7.21-4.41,6.39-6.94-.3-.92-2.19-1-1.83-1.98l4.02.57-2.17,6.69,1.11.54c-.03.55-3.46,2.95-.82,3.5,10.38-9.56,16.17-22.96,15.88-37.12l-1.61-.54,1.65-.3-.58-11.54-1.6,1.07c-.11-2.21,1.18-3.11.95-5.5-.31-3.26-3.48-10.16-5.16-13.18-1.96-3.52-4.38-6.2-6.8-9.35-1.97-1.53-3.17,1.52-3.53,1.11l1.6-2.42c-8.24-7.98-19.71-11.48-30.94-12.64h-57.85ZM150.69,362.71c.09.88-.05,1.81,0,2.69l-1.07-.54v10.76c2.31.66,1.71-2.03,3.22-2.69l.51,2.47c3.99-.53,3.85.43,5.26,3.89.21.52.16,1.16.16,1.71l2.69-1.07c-1.4,1.65.06,3.31-2.15,4.03l1.08,1.88,1.61-1.07c-1.41,2.11,4.39,12.66,3.76,13.45-2.51-.71-2.58-3.53-3.84-5.59-.38-.62-1.41-.74-1.54-1.25-.24-.9.13-2.33-.12-3.53-.4-1.96-2.04-3.16-2.05-5.22h-1.59s0,1.61,0,1.61l1.07.53h-1.62s1.07,1.61,1.07,1.61l-2.46.5-.25,1.87,1.02.38.07,1.01-1.61.82,2.14.26-.54,2.69-1.06-1.07c1.42,4.47-2.61,5.93-3.07,9.98l2.52,2.39-2.68-1.08-2.69,12.52c-.64,1.31-6.96-.09-8.62.39.44,2.13-1.11,5.96,1.08,6.72-1.21.65-1.33,8-1.07,8.35.95-.71,1.7-1.34,2.69-.22-.12,3.22-2.45,2.14-2.7,3.7-.46,2.83,1.12,4.12,1.12,5.93,0,1.69-1.91,3.95-1.11,6.19h55.43v-18.84l-2.15,1.08-.02-1.35,2.16-.81v-10.22h-6.46s.85-5.4.85-5.4l14.22.03.55,5.38h-6.46v20.72c0,.08.56,1.3.85,1.36l1.6-.54-.3-2.16,2.15,1.34-2.42,2.94-1.88-1.05v7.53h55.43v-14.53l-8.85-1.11-.31,1.63-4.83-1.59c1.23-.43,4.65,1.82,4.31-.54l-4.35-1.41,1.11-4.51.59,4.26c4.23-.86,8.24.62,12.34,1.66v-14.53h-8.61l-8.61-41.44h7.53v-29.6h-94.18v15.07l2.15-2.15-.04,3.74c-.32.18-.84-.06-1.03.03-.1-1.03.36-1.24-1.07-1.07v2.69s.58-1.58.58-1.58c.08-.16.4,0,.49-.04ZM297.35,346.03h-41.17v29.6l8.61-.53c-1.05,2-.62,2.84,1.35,3.75l1.87-4.29c.34,1.64-.89,3.45-.45,4.99.22.78,2.32,2.43,3.08,3.96,1.67,3.36,2.4,8.05,4.38,11.5.98-.25,1.14-2.36,1.35-3.22.47-2.03.95-4.08.8-6.19h1.09c-.55,2.06-.32,4.27-.67,6.33s-2.16,3.91-.94,6.04l-1.08.27c-2.44-3.9-3.44-9.59-5.82-13.29-.36-.57-1.95-2.93-2.79-2.32l-2.13,10.57c1.22,2.72-.46,4.31-.58,6.37-.34,5.75.28,11.74.02,17.51-1.63.28-4.08-.94-4.58,1.08-.42-1.8-1.93-.97-3.5-1.09v16.15s2.61.08,2.61.08c.5,1.13,1.14,2.38-.23,3.09l-2.38-.48v11.84h45.21v-9.96l-5.92-1.35c1.3-2.15,4.16-2.12,5.92-.53v-10.22c0-.16-2.67-.52-2.15-2.15l2.15.53.27-4.3c1.66,1.65,6.68,9.56,8.58,9.65.53.02,1.69-.72,1.92-.5-.05,1.59-1.41,1.32-.69,3.07.35.84,7.68,9.44,8.46,9.88,1.76.99,7.16,1.17,9.45,2.67.16.9-1.34.61-1.84.5-2.12-.45-4.29-2.32-6.76-2.12-.35.32,3.2,4.84,3.5,4.84h33.64c.54-3.25-.38-4.34-2.15-6.72l2.19-1.15v-37.09s-3.27-3.19-3.27-3.19l1.09-5.13,2.14,2.69c-.05-2.41-.41-4.85-.4-7.25,0-.92.48-1.8.47-2.73-.01-1.04-1.22-.54-1.2-1.57.03-1.27.97-2.17,1.1-3.28.25-2.16-.11-4.52.03-6.7,1.64-.33,7.44.84,8-.88l.08-28.72h-45.21c-.67,4.55-.9,10.19-.56,14.81.15,2.05,2.15,3.34.03,5.37l3.22,1.63c-.36,1.71-.94,2.58-2.71,2.12l-.52,5.13c-3.28-.96-2.01-1.67-2.97-3.75-.79-1.72-5.56-6.12-7.54-5.81-.36.68-4.69,6.81-5.63,5.79l3.22-5.65-2.68-1.88c1.53-.19,4.12,1.09,5.14-.53.75-1.18-2.76-6.4-4.6-4.86.05-.77.54-1.3.27-2.12-.2-.62-7.45-10.07-8.08-10.25ZM467.69,346.03h-99.03c-.61,2.01-.7,4.11-.54,6.19.1,1.29.95,2.55.96,3.32.02.93-1.9,4.14-.96,6.09l2.14-2.69c.76,5.35-.73,11.18,3.24,15.33l-1.62,1.35h4.31c.41,13.6.94,27.32.3,40.94l-.65.43c-2.6.86-9.36-1.96-7.62,3.46.39,1.22,2.21,1.42.97,3.6,2.6.88,3.26-1.74,4.04-2.15.89-.46,1.05.8.81,1.34-.1.24-3.45.92-2.71,3.5l-1.61-.54.53,2.69h-2.16c.11,2.41-.13,4.87-.01,7.28.05,1.11.79,1.89.84,2.65.17,2.47-1.54,6.06-.82,8.9h99.57v-7c-.64-.48-5,7.37-5.38,4.57-.31-2.21.64-.63,1.35-1.3,1.88-1.77,2.87-3.96,4.01-6.26l.02-29.3-1.34,1.07c-.81-1.11.85-2.44,1.12-3.73.38-1.84-.06-5.52.23-7.57h-18.3l-.53,2.68c3.77.29,4.37,2.99,1.88,5.4-.91-2.7-5.53.69-6.51-2.69-.51-1.95,2.38-4.09,3.55-5.39h-9.69c.3,2.24-1.8,5.1-1.51,7.15.07.5,1.53,4.1,1.88,5.11.23.66,1.09.64,1.15.77.27.57-.75,5.33,2.78,4.74l.58-2.39-1.11-.83c3.7-.43,5.38.32,4.84,4.3l-3.18-.48-1.24,3.02-2.04.15,1.08-2.14-3.76,1.61,2.68-3.5-1.88-1.88-.8,1.07-1.08-1.88,1.62-.54-1.63-5.1c-1.84.97-2.23,8.93-3.3,9.61l-6.09.04-.56,1.66-.56-1.66-9.39.04v-7.53h14.53c-.93-3.82.65-9.2-.01-12.63-.32-1.68-2.92-2.33-1.87-4.04l1.89,1.61v-11.3c-1.46.14-3.22-1.19-4.04.54-1.46,3.08,3.13,4.49,0,6.98-3.67-3.29,2.03-8.9-5.41-8.09-.99.11-1.81.9-2.12.9-.44,0-1.88-1.27-2.93-.9l-.04-6.96,16.16.27c1.21,2.42,1.5,5.15,2.58,7.64,1.01,2.34,3.3,3.87,2.79,6.63-.68-.24-1.14-1.09-1.08.26.07,1.59.75,3.97,1.89,5.12h28.79c-.1-12.65.12-25.31.03-37.97-.01-1.68-.02-2.55,0-4.25.03-2.43-.09-4.87-.03-7.29ZM511.27,356.26l.87,1.1c2.78-2.42,5.47,1.16.9,2-1.3.24-2.59.06-3.88.18l-.03,1.57c-2.3-.49-1.6-.66-2.18-1.74-.9-1.69-2.21,1.3-3.48,1.72-1.64.55.55-1.31-1.01-1.02-5.09.96-10.71,4.69-15.73,5.16-.88.08-1.92-.55-2.89-.36l.55,1.07c-3-.92-7.31,3.37-6.41,6.13.33,1,2.02.38,1.56,1.94l-3.8-.85,2.71-8.81-8.05-1.64c.85,8.9-1.01,19.59-.01,28.26.46,4.02,5.75,4.42,6.74.79.52,0,.18,1.13.52,1.63.68.98,11.29.69,12.97.03,2.11-.83,7.28-6.91,9.45-8.85,1.7-1.52,8.87-8.12,10.16-8.67,1.16-.5,5.16-.94,5.38,1.06-2.33-.58-4.18,1.73-5.68,3.48-1.25,1.45-1.27,4.4-4.01,3.24l-1.08,5.39-.8-3.22c-2.18,1.56-4.01,4.64-5.84,6.27-4.26,3.82-9.27,7.39-13.56,11.47-1.85,1.76-3.49,2.63-2.41,5.39l-1.34-1.6c-1.73,2.04-4.68,3.29-4.04,6.44l-.8-2.15-5.38,4.85c-.52,1.13-.54,15.47-.29,17.5.34,2.79,4.9,7.91,1.09,8.86.23-1.51.52-4.56-1.07-5.38.49,2.34-1.2,6.89,1.08,7.8l-1.09.61v1.81h92.04v-3.23s-4.85.81-4.85.81l4.85-1.88v-43.05h-20.18l-4.57,4.58c3.13,1.34,1.33,4.44,4.83,5.38-.78,1.17-1.25,2.61-2.94,2.45l-.54-1.11-.8,1.08c-.2-1.73-.11-1.75,1.61-1.61v-1.34s-1.35-.28-1.35-.28c-1.05,1.94-5.2,2.33-4.57,5.4-2.15.89-3.31-1.59-2.06-2.62.32-.26,1.35.11,1.91-.23.37-.23,2.79-1.83,3.07-2.06.97-.79.81-2.39,2.45-2.91h-3.74c-1.96,2.89-6.98,5.41-8.69,8.07-.52.8-.27,1.12.07,1.89h-5.38s.57,2.39.57,2.39l-.56,4.6c.03-1.54.13-7.17-.83-8.1-.72-.69-1.94-.08-1.86-1.04.98-.79,2.96.41,3.22.29.33-.15,4.99-4.83,5.14-5.17.29-.68-.36-1.54-.3-1.59.1-.08,1.47.07,2.46-.51.39-.23,6.03-5.5,6.71-6.21.93-.98.87-2.77,2.6-3.04-1.16-3.3.89-6.22-1.54-9.33,4.43-3.07,4.28,3.95,4.58,6.71,1.92-2.82,8-6.81,9.45-9.38.77-1.37.24-3.49,2.12-4.06l.06,1,.75.07,8.35-7.8v-29.87h-92.03c.32,3.14-.42,6.96-.04,9.99.13,1.05,1.09.52,1.17,1.57.1,1.32-2.08,2.18-1.09,4.55l8.04,1.64c.48-.53-.84-5.47.81-6.45l1.62,5.92c2.75-2.56,6.69-.24,8.06-3.23l1.06,2.14,3.32-3.16c1.53-.53,1.13.89,1.63,1.01,3.34.79,8.24-3.47,11.99-2.75l.3-1.58,1.88.03-.54,1.61c1.3.49,1.14-.89,1.46-1.04l.23,1.23,1.17-.22-.2-1.04ZM369.2,368.09c-.59-1.6.7-4.46-1.07-5.38-.05.35-.38,7.22,1.07,5.38ZM311.61,363.79h-.8s-.81,1.07-.81,1.07l2.15.54-.54-1.61ZM369.74,375.62l.3-2.7-1.91-.53c-.08,1.27-.32,3.36,1.61,3.22ZM265.86,382.07l-1.6-1.61v5.92c1.79-.74.98-2.75.5-4.01l1.1-.3ZM46.28,485.41h9.96c.92,0,3.11-1.89,3.38-3.08.56-2.37.39-12.18.14-14.98-.2-2.23-1.57-4.55-4.06-4.55h-16.68c-1.34.9.16,1.86.28,3.48.5,6.68.71,19.9,0,26.4-.16,1.48-.96,2.14-1.09,3.48h8.61l-.54-10.76ZM80.19,496.17c-.08-1.22-.91-1.54-1.11-2.93-.81-5.78-.45-20.77.02-26.95.07-.91.27-1.68.86-2.39l-.57-1.09h-7.8v33.37h8.61ZM100.1,462.81h-8.07v33.37h19.11c1.68-2.02.45-5.52.81-8.07h-7s0,2.16,0,2.16h-5.39v-25.57c0-.27.85-1.13.54-1.88ZM123.79,496.17h8.61c-.24-1.62-.56-3.55.81-4.84h7.8v4.84h9.15l-9.46-33.38-8.3.02c.27.97.39,1.55.2,2.57-1.38,7.69-5.04,20.47-7.57,28-.37,1.09-1.25,1.69-1.24,2.8ZM181.64,462.81h-19.64c-.55,1.14-1.1,6.93.27,6.98,1.73-1.56,4.07-1,6.19-1.06v25.56c0,.27-.85,1.13-.54,1.88h7.8l-.27-27.45c2.3,0,4.4-.34,6.46.82.91-.66.92-6.37-.27-6.73ZM213.39,462.81h-19.64c.19,1.45.93,2.5,1.08,4.03.62,6.28.48,17.85.02,24.24-.14,1.99-.56,3.25-1.1,5.09h19.64c1.68-2.02.45-5.52.81-8.07l-6.67-.03-1.2,2.13-4.51.06v-8.07h7.53l-1.04-5.15-6.49-.23v-8.07l4.51.06,1.2,2.13,6.67-.03c-.27-1.52.7-7.61-.81-8.07ZM238.96,473.03l6.77-1.04c.34-2.17.84-6.7-1.09-8.13-2.16-1.6-15.01-1.51-17.37-.14-2.48,1.44-2.31,11.44-.92,13.59,1.73,2.67,9.77,5.31,11.84,7.53,1.39,1.49.61,3.63.78,5.41h-6.46s-.5-4.61-.5-4.61h-5.99c-.78,3.21-1.71,8.77,2.33,10.11,2.35.78,14.02.83,15.97-.42,2.29-1.48,2.25-11.99,1.05-13.9s-12.55-7.08-12.87-8.24v-4.47s6.47,0,6.47,0v4.31ZM304.89,462.81h-19.64c.37,1.53.94,2.29,1.1,4.01.58,6.02.64,19.92-.01,25.87-.16,1.48-.96,2.14-1.09,3.48h8.61c-1.53-4.43-.07-9.31-.54-13.99h7.53l-1.04-5.15-6.43-.3-.06-8.01,4.51.07,1.2,2.13,6.67-.03c-.27-1.52.7-7.61-.81-8.07ZM325.61,462.81h-8.61c.08,1.22.91,1.54,1.11,2.93,1.08,7.65-.78,17.89-.06,25.89.14,1.52.26,2.79,1.67,3.71,1.81,1.18,11.16,1.11,13.72.87,2.35-.22,4.64-.97,5.05-3.56,1.13-7.2-.25-18.53,0-26.36.04-1.2.55-2.28.56-3.47h-8.07c-.31.75.54,1.61.54,1.88v25.56h-6.46v-25.56c0-.27.85-1.13.54-1.88ZM350.9,496.17h8.61c.31-.75-.54-1.61-.54-1.88v-13.18l7.76,14.57h6.53s.5-32.87.5-32.87h-7.8c-.31.75.54,1.61.54,1.88v14.26l-7.76-15.65c-.98-.82-7.87-.85-7.84.31.34.32.85.76.93,1.21.86,4.46.68,22.94.15,27.87-.16,1.48-.96,2.14-1.09,3.48ZM392.88,489.44v-20.72l6.49.23.51,6.76,6.04-1.08.7-1.04c-.9-3.27,1.2-8.44-2.3-10.13-2.03-.98-11.29-.97-13.88-.68-3.3.37-4.3,1.91-4.59,5.1-.51,5.64-.6,18.17.01,23.72.32,2.9,1.66,4.25,4.58,4.58,2.53.28,10.88.31,13.11-.37,4.15-1.26,3.79-7.98,2.7-11.41l-6.38-.08-.56,5.89c-1.36-.11-6,.61-6.43-.78ZM426.79,496.17l-.06-32.52c-.35-1.42-8.47-1.17-8.53-.04.71.8.99,1.62,1.08,2.68.53,6.65.65,19.31.01,25.87-.17,1.72-.73,2.48-1.1,4.01h8.61ZM457.87,464.02c-1.81-1.67-17.08-2.46-18.96.94.22,8.47-1.25,18.92-.29,27.18.64,5.47,10.43,4.43,14.83,4.05,3.39-.29,5.25-.94,5.64-4.59.61-5.58.53-18.05.01-23.72-.1-1.06-.5-3.18-1.24-3.87ZM470.38,496.17h8.61c.31-.75-.54-1.61-.54-1.88v-13.18l7.76,14.57h6.53c.98-1.41-.25-25.1.22-29.39.16-1.48.96-2.14,1.09-3.48h-8.61c-.31.75.54,1.61.54,1.88v14.26l-7.62-16.06c-1.28-.05-7.98-.58-7.98.72.75.58.99,1.2,1.1,2.12.65,5.85.64,21.11,0,26.97-.18,1.66-.73,2.05-1.11,3.46ZM505.9,496.17h8.61c-.35-1.79-.69-3.43.81-4.84h7.8v4.84h9.15l-9.46-33.37h-8.3s.09,3.01.09,3.01l-8.7,30.37ZM551.92,462.81h-7.8v33.37h19.91v-8.07h-7s0,2.16,0,2.16l-5.15-.51.03-26.94ZM257.8,482.18h15.34c1.62-1.71.5-4.76.81-7-5.49-.86-10.66-.42-16.15,0v7Z"/>
  <polygon class="cls-1" points="510.06 356.28 509.65 354.11 510.82 353.89 511.27 356.26 510.06 356.28"/>
  <path d="M457.87,464.02c.75.69,1.15,2.81,1.24,3.87.51,5.67.59,18.14-.01,23.72-.4,3.65-2.25,4.29-5.64,4.59-4.41.38-14.2,1.42-14.83-4.05-.96-8.26.51-18.71.29-27.18,1.88-3.41,17.15-2.62,18.96-.94ZM445.63,468.72v21.53h6.46v-21.53h-6.46Z"/>
  <path d="M325.61,462.81c.31.75-.54,1.61-.54,1.88v25.56h6.46v-25.56c0-.27-.85-1.13-.54-1.88h8.07c-.02,1.19-.52,2.27-.56,3.47-.26,7.83,1.13,19.16,0,26.36-.41,2.59-2.7,3.34-5.05,3.56-2.56.25-11.91.31-13.72-.87-1.41-.91-1.53-2.18-1.67-3.71-.73-8,1.13-18.24.06-25.89-.2-1.39-1.02-1.71-1.11-2.93h8.61Z"/>
  <path d="M238.96,473.03v-4.31s-6.46,0-6.46,0v4.47c.31,1.16,11.62,6.26,12.86,8.24s1.24,12.42-1.05,13.9c-1.94,1.26-13.62,1.2-15.97.42-4.05-1.34-3.11-6.9-2.33-10.11h5.99s.5,4.61.5,4.61h6.46c-.17-1.79.61-3.93-.78-5.41-2.08-2.22-10.11-4.86-11.84-7.53-1.39-2.15-1.56-12.15.92-13.59s15.22-1.47,17.37.14c1.93,1.44,1.42,5.96,1.09,8.13l-6.77,1.04ZM230.34,467.65l-.26-1.07-.81,1.07h1.07Z"/>
  <path d="M470.38,496.17c.38-1.41.93-1.8,1.11-3.46.64-5.86.64-21.12,0-26.97-.1-.93-.34-1.55-1.1-2.12,0-1.3,6.69-.77,7.98-.72l7.62,16.06v-14.26c0-.27-.85-1.13-.54-1.88h8.61c-.13,1.34-.93,2-1.09,3.48-.47,4.29.76,27.97-.22,29.38h-6.53s-7.76-14.56-7.76-14.56v13.18c0,.27.85,1.13.54,1.88h-8.61ZM479.41,470.45c-.5-.85-4.47-2.87-4.18-.12l1.61-.54v1.61s-2.69-.53-2.69-.53l1.61,1.08-.82,1.06-1.87-1.61.68,4.22c2.74.71-.5,1.01-.14,1.96l3.5,1.95,1.61-1.67v1.62s.92-1.36.92-1.36l1.5-.25-1.07,2.14h2.15c.24-.22-1.23-4.93-1.41-5.73-.16-.73.8-1.99-.73-2.34l-.54,1.07c-.09-.79.26-1.91-.12-2.57ZM484.02,480.88c-.23-.12-.04-1.55-1.41-.33-1.72,1.53.61,4.05,2.03,4.85l.8-1.07c-.07,3.09-1.39,4.19,1.45,6.3,2.51,1.86,2.24-.21.18-1.45l2.41,1.09,1.35-1.11-1.61-.53,1.61-1.34-.98-.33.4-1.5-1.04-.32,1.62-.8-3.22-1.08,2.68-.8-1.6-1.36-1.08,1.61.53-2.15c-2.34.18-1.81,1.49-4.12.31Z"/>
  <path d="M392.88,489.44c.43,1.38,5.07.67,6.43.78l.56-5.89,6.38.08c1.08,3.43,1.45,10.14-2.7,11.41-2.23.68-10.58.65-13.11.37-2.91-.32-4.26-1.68-4.58-4.58-.61-5.55-.53-18.08-.01-23.72.29-3.19,1.29-4.73,4.59-5.1,2.59-.29,11.85-.3,13.88.68,3.5,1.69,1.4,6.86,2.3,10.13l-.7,1.04-6.04,1.08-.51-6.76-6.49-.23v20.72Z"/>
  <path d="M505.9,496.17l8.7-30.37-.09-3h8.3s9.46,33.36,9.46,33.36h-9.15v-4.84h-7.8c-1.5,1.41-1.16,3.06-.81,4.84h-8.61ZM521.51,467.12h-1.07s0,1.07,0,1.07l1.07-1.07ZM519.89,467.65c-3.32-.11-5.6,3.73-3.21,6.45l1.6-1.07v2.15s3.77,0,3.77,0l-.57-1.85,1.11-.83-1.1-.28,1.09-2.15-2.13-1.34-1.08,1.61c-1.13-2.37.65-.79.53-2.69ZM521.51,485.4l-2.42-8.06c-.94.78-2.73,7.78-2.42,8.07h4.84Z"/>
  <path d="M123.79,496.17c0-1.11.87-1.7,1.24-2.8,2.53-7.52,6.2-20.3,7.57-28,.18-1.02.07-1.6-.2-2.57l8.3-.02,9.46,33.38h-9.15v-4.84h-7.8c-1.36,1.29-1.05,3.22-.81,4.84h-8.61ZM139.53,467.64c0-.37-.3-.66-.66-.66s-.66.3-.66.66.3.66.66.66.66-.3.66-.66ZM137.77,467.65c-3.27-.09-1.59.75-2.26,1.5-.39.43-2.53.19-2.03,3.34l1.61-.25-1.08,2.41,1.88-1.61.27,2.15,4.3-.81c.19-.56-.91.06-1.08-.54-.38-1.37,1.26-.3,1.08-1.33l-1.1-.28,1.1-2.95c-2.08.81-.98.42-2.14-.54l-1.08,1.61c-1.13-2.37.65-.79.53-2.69ZM139.39,485.4l-2.42-8.06-2.42,8.07h4.84ZM131.32,489.18h-1.07s0,1.07,0,1.07l1.07-1.07Z"/>
  <path d="M304.89,462.81c1.51.47.54,6.56.81,8.07l-6.67.03-1.2-2.13-4.51-.07.06,8.01,6.43.3,1.04,5.15h-7.53c.47,4.68-.99,9.56.54,13.99h-8.61c.13-1.34.93-2,1.09-3.48.65-5.95.59-19.86.01-25.87-.17-1.72-.73-2.48-1.1-4.01h19.64ZM291.16,475.73l-3.23.26c.89,1.19,2.7,1.22,3.23-.26ZM291.16,483.79c.31-2.21.46-4.41-1.6-5.91-2.34,2.75.77.89,1.07,3.76l-2.15,1.08,2.68,1.08Z"/>
  <polygon points="551.92 462.81 551.89 489.75 557.04 490.26 557.03 488.09 564.03 488.1 564.03 496.17 544.12 496.17 544.12 462.81 551.92 462.81"/>
  <path d="M100.1,462.81c.31.75-.54,1.61-.54,1.88v25.56h5.39s0-2.16,0-2.16h7c-.36,2.55.87,6.05-.81,8.08h-19.11v-33.37h8.07Z"/>
  <path d="M181.64,462.81c1.19.37,1.18,6.07.27,6.73-2.06-1.16-4.16-.82-6.46-.82l.27,27.45h-7.8c-.31-.75.54-1.61.54-1.88v-25.56c-2.12.06-4.46-.5-6.19,1.06-1.37-.06-.82-5.84-.27-6.98h19.64ZM172.36,467.1c0-.37-.3-.66-.66-.66s-.66.3-.66.66.3.66.66.66.66-.3.66-.66Z"/>
  <path d="M80.19,496.17h-8.61v-33.37h7.8l.57,1.09c-.58.71-.79,1.48-.86,2.39-.46,6.18-.83,21.17-.02,26.95.2,1.39,1.02,1.71,1.11,2.93Z"/>
  <path d="M426.79,496.17h-8.61c.37-1.53.94-2.29,1.1-4.01.63-6.56.51-19.22-.01-25.87-.08-1.06-.37-1.88-1.08-2.68.06-1.12,8.19-1.37,8.53.04l.06,32.52ZM422.48,481.1v-1.61h-.53v1.61h.53Z"/>
  <path d="M257.8,482.18v-7c5.49-.42,10.65-.86,16.15,0-.31,2.23.8,5.29-.81,7h-15.34Z"/>
  <rect class="cls-1" x="445.63" y="468.72" width="6.46" height="21.53"/>
  <path class="cls-1" d="M484.02,480.88c2.31,1.17,1.78-.13,4.12-.31l-.53,2.15,1.08-1.61,1.6,1.36-2.68.8,3.22,1.08-1.62.8,1.04.32-.4,1.5.98.33-1.61,1.34,1.61.53-1.35,1.11-2.41-1.09c2.06,1.24,2.34,3.32-.18,1.45-2.84-2.1-1.52-3.2-1.45-6.3l-.8,1.07c-1.42-.8-3.75-3.33-2.03-4.85,1.37-1.22,1.17.21,1.41.33ZM487.6,487.57h-1.61v.53h1.61v-.53Z"/>
  <path class="cls-1" d="M519.89,467.65c.13,1.9-1.66.32-.53,2.69l1.08-1.61,2.13,1.34-1.09,2.15,1.1.28-1.11.83.57,1.85h-3.76s0-2.15,0-2.15l-1.6,1.07c-2.38-2.72-.11-6.56,3.21-6.45ZM520.43,473.03h-.8s-.82,1.07-.82,1.07h1.61s0-1.07,0-1.07Z"/>
  <path class="cls-1" d="M521.51,485.4h-4.84c-.31-.29,1.49-7.28,2.42-8.06l2.42,8.06Z"/>
  <polygon class="cls-1" points="521.51 467.12 520.44 468.19 520.44 467.11 521.51 467.12"/>
  <polygon class="cls-1" points="131.32 489.18 130.25 490.25 130.25 489.18 131.32 489.18"/>
  <rect class="cls-1" x="197.14" y="481.76" width="2.42" height="1.16" transform="translate(-295.44 650.16) rotate(-86.42)"/>
  <rect class="cls-1" x="421.95" y="479.49" width=".53" height="1.61"/>
  <rect x="485.99" y="487.57" width="1.61" height=".53"/>
  <g>
    <path d="M350.9,496.17c.13-1.34.93-2,1.09-3.48.54-4.93.71-23.41-.15-27.87-.09-.45-.6-.88-.93-1.21-.03-1.16,6.85-1.13,7.84-.31l7.76,15.65v-14.26c0-.27-.85-1.13-.54-1.88h7.8l-.5,32.86h-6.53s-7.76-14.56-7.76-14.56v13.18c0,.27.85,1.13.54,1.88h-8.61ZM359.93,470.45c-.5-.85-4.47-2.87-4.18-.12l1.61-.54v1.61s-2.69-.53-2.69-.53l1.61,1.08-.82,1.06-1.87-1.61c.49,1.63-.13,4.04,1.62,4.57l-1.08,1.6,3.5,1.95,1.61-1.67.54,1.08,1.88-1.08-1.07,2.14h2.15c.29-.26-1.34-4.54-1.47-5.24-.2-1.09,1.01-2.35-.67-2.83l-.54,1.07c-.09-.79.26-1.91-.12-2.57ZM364.54,480.88c-.23-.12-.04-1.55-1.41-.33-1.72,1.53.61,4.05,2.03,4.85l.8-1.07c-.66,3.19-.63,6.35,3.23,6.99l-1.61-2.14,2.69,1.07.55-1.35-1.08-.79,1.61-1.08-1.01-.25c1.19-1.88-.21-.81-.6-1.9l1.61-.54-3.22-1.08,2.68-.8-1.6-1.36-1.08,1.61.53-2.15c-2.34.18-1.81,1.49-4.12.31Z"/>
    <path class="cls-1" d="M359.93,470.45c.39.67.04,1.79.12,2.57l.54-1.07c1.68.48.47,1.74.67,2.83.13.7,1.77,4.98,1.47,5.24h-2.15s1.07-2.14,1.07-2.14l-1.88,1.08-.54-1.08-1.61,1.67-3.5-1.95,1.08-1.6c-1.75-.53-1.12-2.94-1.62-4.57l1.87,1.61.82-1.06-1.61-1.08,2.69.53v-1.61s-1.61.54-1.61.54c-.29-2.75,3.69-.74,4.18.12Z"/>
    <path class="cls-1" d="M364.54,480.88c2.31,1.17,1.78-.13,4.12-.31l-.53,2.15,1.08-1.61,1.6,1.36-2.68.8,3.22,1.08-1.61.54c.39,1.09,1.79.02.6,1.9l1.01.25-1.61,1.08,1.08.79-.55,1.35-2.69-1.07,1.61,2.14c-3.87-.64-3.89-3.8-3.23-6.99l-.8,1.07c-1.42-.8-3.75-3.33-2.03-4.85,1.37-1.22,1.17.21,1.41.33ZM368.12,487.57h-1.61v.53h1.61v-.53Z"/>
    <rect x="366.51" y="487.57" width="1.61" height=".53"/>
  </g>
  <polygon points="520.43 473.03 520.43 474.1 518.82 474.1 519.64 473.04 520.43 473.03"/>
  <g>
    <path d="M46.28,485.41l.54,10.76h-8.61c.13-1.34.93-2,1.09-3.48.71-6.5.5-19.72,0-26.4-.12-1.63-1.62-2.59-.28-3.48h16.68c2.49,0,3.86,2.32,4.06,4.55.25,2.79.41,12.6-.14,14.98-.28,1.19-2.47,3.08-3.38,3.08h-9.96ZM52.74,468.72h-6.46v10.76h6.46v-10.76ZM44.13,479.48l-1.07-1.07v1.07s1.07,0,1.07,0ZM43.59,481.11h-1.07s0,1.61,0,1.61c.73.19.63-.9,1.07-1.61Z"/>
    <path d="M213.39,462.81c1.51.47.54,6.56.81,8.07l-6.67.03-1.2-2.13-4.51-.06v8.07l6.49.23,1.04,5.15h-7.53v8.07l4.51-.06,1.2-2.13,6.67.03c-.36,2.55.87,6.05-.81,8.07h-19.64c.54-1.84.96-3.1,1.1-5.09.46-6.39.6-17.96-.02-24.24-.15-1.53-.89-2.59-1.08-4.03h19.64ZM199.71,480c-.39-.38.79-4.08-1.66-3.74l-1.08,4.3c1.5-.41,2.19-.27,3.48.55l.82-1.08-1.58-.03ZM197.85,481.09l-.15,2.41,1.15.07.15-2.41-1.15-.07Z"/>
    <g>
      <path d="M33.37,346.03h57.85c11.24,1.17,22.71,4.66,30.94,12.65l-1.6,2.42c.36.41,1.56-2.64,3.53-1.11,2.42,3.15,4.84,5.83,6.8,9.35,1.68,3.01,4.85,9.91,5.16,13.18.23,2.38-1.06,3.28-.95,5.5l1.6-1.07.58,11.54-1.65.3,1.61.54c.29,14.16-5.5,27.56-15.88,37.12-2.64-.56.79-2.96.82-3.5l-1.11-.54,2.17-6.69-4.02-.57c-.36.98,1.53,1.06,1.83,1.98.82,2.52-4.25,6.52-6.39,6.94-1,.19-1.89-.41-2.83-.2-8.65,1.97-16.77,7.31-25.95,5.79-2.01-.33-1.91-2-3.53-2.11l.54,5.37,1.07-3.76.81,3.76c2.69-2.88,6.29-.66,9.56-1.19,3.73-.6,7.99-4.86,11.42-1.48,2.46-5.01,4.98-2.6,8.65-2.76,1.57-.07,2.44-2.05,4.55-1,1.46,1.61-4.67,4.75-5.71,5.32-6.23,3.36-13.58,5.24-20.91,6l-58.95-.02v-30.67h8.07v-41.44h-8.07v-29.6ZM80.19,356.25l-.26-1.07-.81,1.07h1.07ZM75.34,355.72c-1.8-.76-4.49,3.38-3.76,4.3,1.45-1.17,3.72-2.1,3.76-4.3ZM51.4,356.25l-1.08,1.08,1.08,1.08,1.08-1.08-1.08-1.08ZM89.34,358.94c-.32-1.22-1.68-1.15-2.69-1.07v1.07s2.69,0,2.69,0ZM91.49,359.48h-1.07s.81,1.07.81,1.07l.26-1.07ZM57.72,363.24c0-.37-.3-.66-.66-.66s-.66.3-.66.66.3.66.66.66.66-.3.66-.66ZM44.74,363.57l-.25.81,5.85,1.84.25-.81-5.85-1.84ZM86.11,365.4l-.82-1.07h-.8s0,1.07,0,1.07h1.61ZM73.73,364.87h-1.07s0,1.07,0,1.07l1.07-1.07ZM97.41,365.95c-1.46-.06-3.5-1.43-4.3.53l4.3-.53ZM110.33,368.09l-.54-2.68h-.53s-.54,2.68-.54,2.68h1.61ZM100.64,365.94h-2.69v.53h2.69v-.53ZM103.87,365.94h-2.15v.53h2.15v-.53ZM100.1,367.56h-2.69s0,1.07,0,1.07l2.68-.54v-.53ZM113.56,368.1h-2.15v.53h2.15v-.53ZM120.55,370.25l-4.84-1.08,3.22,1.34,1.61-.27ZM112.61,371.99l-2.15,2.15.82.82,2.15-2.15-.82-.82ZM106.56,373.48h-1.07s0,1.61,0,1.61l1.07-.82v-.8ZM63.51,377.25c-.44-.37-3.05,1.45-3.23,2.14,1.5.24,2.62-.96,3.23-2.14ZM129.16,377.24l-1.06.26c.87,1.5,1.42,3.19,2.36,4.65.44.68.04,1.3,1.39,1.01.07-2.18-1.27-2.97-2.16-4.15-.39-.52-.41-1.64-.54-1.77ZM69.42,379.93c-1.38-.51-2.41,2.93-2.15,3.22,1.38.51,2.41-2.93,2.15-3.22ZM96.2,394.09c-.36-.35-1.25-.28-1.76-.68-1.57-1.22-1.28-4.13-1.99-6.1-2.04-5.62-4.9-8.06-11.18-7.39v32.83s6.77-.07,6.77-.07c.41-1.35,1.55-.43,2.43-1.81.3-.46,2.28-6.8,2.48-7.7.67-3.05.82-6.14.71-9.26l6.99,5.38-4.14-3.97c-.2-.34-.08-1.03-.3-1.25ZM115.72,385.31l1.06-.81-.8-.8-.26,1.61ZM78.57,386.92v-2.69h-.53v2.69h.53ZM129.16,385.32c-1.43-.12-1.81.93-1.61,2.15h1.06s.54-2.15.54-2.15ZM75.88,388.55c-.96-.15-1.89.03-2.15,1.07.7.22,2.71-.81,2.15-1.07ZM59.74,391.77h.8c.64-.66,1.56-1.11,1.35-2.15l-2.14,1.09v1.06ZM71.58,389.62h-1.07s.81,1.07.81,1.07l.26-1.07ZM104.94,391.77v-2.15h-.53v2.15h.53ZM72.65,392.84c.16-.17.67-2.4.54-2.68-.72-.3-1.27,2.24-1.07,2.68.17-.03.46.07.53,0ZM58.12,394.46l-.26-1.07-.81,1.07h1.07ZM73.19,396.07v-2.15h-.53v2.15h.53ZM56.51,395h-1.61s0,1.07,0,1.07h.8s.82-1.07.82-1.07ZM121.69,394.83l-.1.76,5.33.71.1-.76-5.33-.71ZM53.82,398.22l-.26-1.07-.81,1.07h1.07ZM133.47,397.7c-.17-.16-2.4-.67-2.68-.54-.3.72,2.24,1.27,2.68,1.07-.03-.17.07-.46,0-.53ZM113.55,401.46c.1-1.18.17-2.62-1.33-2.69l-.8.8,2.14,1.88ZM130.24,408.99c-.91-3.1-2.33-7.08-4.83-9.15.83,3.2,2.41,6.85,4.83,9.15ZM60.81,400.38c-5.64.45-2.21,6.82-2.74,8.85-.22.84-1.7.46-1.56,1.37,7.38-.04,4.01-.6,3.72-4.58-.13-1.84.92-3.72.58-5.64ZM120.55,403.07l-.26-2.15-1.34,1.35v.8s1.61,0,1.61,0ZM122.16,407.37v-2.15h-.53v2.15h.53ZM125.28,404.81l-.55.55,3.22,3.22.55-.55-3.22-3.22ZM101.72,406.84c-1.9-.18-1.75,2.18-2.45,3.2-.77,1.12-2.5,1.15-2.39,2.72l5.37-2.43-1.1-1.1.57-2.38ZM121.63,408.46c-1.14-.03-2.29-.95-2.69.53h2.69s0-.53,0-.53ZM110.87,408.46h-1.07s0,1.07,0,1.07l1.07-1.07ZM48.98,417.6l-.8-3.76c-1.29,1.01-1.33,3.84.8,3.76ZM100.1,415.44c.26-.2-.94-1.42-1.61-1.07-.26.2.94,1.42,1.61,1.07ZM124.86,419.75c1.31-2.74-5.09-7.43-4.08-3.73.42,1.53,2.79,2.91,4.08,3.73ZM92.03,414.92c-2.57.34-2.88,2.98-1.61,4.83l1.61-4.83ZM62.96,415.45c-2.13-.38-.6,2.17-.52,3.23l.52-3.23ZM132.93,416.53h-1.07s0,2.14,0,2.14h.53s.54-2.14.54-2.14ZM88.26,419.75l-1.61-2.15.54,2.15h1.07ZM72.65,420.83c.36-.67-.86-1.88-1.07-1.61-.36.67.86,1.88,1.07,1.61ZM131.85,421.37v-1.61h-.53v1.61h.53ZM57.58,420.29c-2.31-1.27-5.19,4.35-2.95,4.85,1.93.43,3.72-3.07,2.95-4.85ZM90.41,422.44v-1.61c-2.18.8-2.18.81,0,1.61ZM47.36,422.98l-.26-1.61-.81,1.61h1.07ZM51.13,422.45c-.54-.55-2.16,1.05-1.61,1.61s2.16-1.05,1.61-1.61ZM71.04,428.9c-.79-2.12,2.5-4.69,0-5.92.47,1.5.3,2.59-1.21,3.37-3.84.69-6.99,1.91-10.89,2.57-.97.16-1.6-.58-1.35,1.05l12.63-2.7.81,1.62ZM57.05,426.21c-1.53-.28-.88.38-1.21,1.18-.47,1.14-.91,2.4-.94,3.65l2.14-4.84ZM76.96,428.9c.13-1.33.05-2.84-1.61-2.69-.46.47,1.32,3.09,1.61,2.69ZM75.34,430.52l-.26-1.08-1.35-.53,1.61,1.61ZM70.5,443.97c.44-4.46,1.07-8.86.27-13.46-.49,1.75.19,2.75-1.89,3.5l1.66.56-.6,6.95.56,2.44ZM86.11,431.6c-1.89-.28-2.26.34-.8,1.6l.8-1.6ZM76.42,445.58c1.19.13,1.43.12,2.05-.91,1.02-1.69,1.34-5.08,2.5-7.19.7-1.27,3.9-3.7,2.47-4.56l-4.86-.78c3.6,3.71-1.01,9.24-2.15,13.44ZM58.12,436.44h-3.22v.53h3.22v-.53ZM51.66,437.52c-1.14.3-4.21-.93-3.76,1.07.97-.95,3.37.07,3.76-1.07ZM100.1,443.43c.08-1,.15-2.37-1.07-2.69l.54,2.69h.53ZM60.28,442.36l-2.15-.54.06,1.82.75.87,1.33-.81v-1.34ZM50.6,444.51c.2.26,1.42-.94,1.07-1.61-.2-.26-1.42.94-1.07,1.61ZM96.33,442.9h-2.69s0,1.07,0,1.07l2.68-.54v-.53Z"/>
      <path class="cls-1" d="M96.2,394.09c.22.22.1.91.3,1.25l4.14,3.97-6.99-5.38c.11,3.11-.03,6.21-.71,9.26-.2.91-2.18,7.24-2.48,7.7-.89,1.37-2.03.46-2.43,1.81l-6.77.07v-32.83c6.28-.68,9.14,1.77,11.18,7.39.71,1.96.43,4.88,1.99,6.1.51.4,1.39.32,1.76.68Z"/>
      <path class="cls-1" d="M60.81,400.38c.34,1.92-.71,3.8-.58,5.64.28,3.98,3.65,4.54-3.72,4.58-.14-.91,1.34-.53,1.56-1.37.53-2.02-2.9-8.4,2.74-8.85Z"/>
      <path class="cls-1" d="M76.42,445.58c1.14-4.2,5.75-9.74,2.15-13.44l4.86.78c1.43.87-1.77,3.3-2.47,4.56-1.16,2.11-1.48,5.5-2.5,7.19-.62,1.03-.86,1.04-2.05.91Z"/>
      <path class="cls-1" d="M57.58,420.29c.77,1.78-1.02,5.28-2.95,4.85-2.24-.5.63-6.12,2.95-4.85Z"/>
      <path class="cls-1" d="M101.72,406.84l-.57,2.38,1.1,1.1-5.37,2.43c-.11-1.57,1.63-1.6,2.39-2.72.7-1.02.55-3.38,2.45-3.2Z"/>
      <path class="cls-1" d="M71.04,428.9l-.81-1.62-12.63,2.7c-.25-1.63.38-.89,1.35-1.05,3.9-.66,7.06-1.88,10.89-2.57,1.51-.78,1.68-1.87,1.21-3.37,2.49,1.23-.8,3.79,0,5.92Z"/>
      <path class="cls-1" d="M124.86,419.75c-1.29-.83-3.66-2.2-4.08-3.73-1.01-3.69,5.38.99,4.08,3.73Z"/>
      <path class="cls-1" d="M130.24,408.99c-2.42-2.3-4-5.95-4.83-9.15,2.51,2.06,3.93,6.05,4.83,9.15Z"/>
      <path class="cls-1" d="M70.5,443.97l-.56-2.44.6-6.95-1.66-.56c2.08-.75,1.4-1.75,1.89-3.5.79,4.6.17,8.99-.27,13.46Z"/>
      <path class="cls-1" d="M75.34,355.72c-.04,2.21-2.31,3.13-3.76,4.3-.73-.93,1.96-5.06,3.76-4.3Z"/>
      <path class="cls-1" d="M129.16,377.24c.13.13.14,1.24.54,1.77.89,1.18,2.23,1.97,2.16,4.15-1.36.29-.95-.32-1.39-1.01-.95-1.46-1.49-3.15-2.36-4.65l1.06-.26Z"/>
      <path class="cls-1" d="M92.03,414.92l-1.61,4.83c-1.27-1.85-.96-4.49,1.61-4.83Z"/>
      <polygon class="cls-1" points="60.28 442.36 60.27 443.69 58.94 444.51 58.19 443.64 58.13 441.82 60.28 442.36"/>
      <path class="cls-1" d="M69.42,379.93c.26.29-.77,3.73-2.15,3.22-.26-.29.77-3.73,2.15-3.22Z"/>
      <path class="cls-1" d="M62.96,415.45l-.52,3.23c-.08-1.06-1.61-3.6.52-3.23Z"/>
      <path class="cls-1" d="M48.98,417.6c-2.13.08-2.1-2.74-.8-3.76l.8,3.76Z"/>
      <path class="cls-1" d="M97.41,365.95l-4.3.53c.8-1.96,2.84-.59,4.3-.53Z"/>
      <path class="cls-1" d="M113.55,401.46l-2.14-1.88.8-.8c1.5.06,1.43,1.51,1.33,2.69Z"/>
      <rect class="cls-1" x="123.91" y="392.88" width=".77" height="5.37" transform="translate(-284.27 466.23) rotate(-82.37)"/>
      <rect class="cls-1" x="126.23" y="404.42" width=".77" height="4.56" transform="translate(-250.51 208.67) rotate(-45)"/>
      <rect class="cls-1" x="110.43" y="372.89" width="3.04" height="1.16" transform="translate(-231.31 188.56) rotate(-45)"/>
      <path class="cls-1" d="M63.51,377.25c-.61,1.19-1.73,2.38-3.23,2.14.18-.69,2.79-2.51,3.23-2.14Z"/>
      <path class="cls-1" d="M76.96,428.9c-.29.4-2.07-2.22-1.61-2.69,1.66-.15,1.74,1.36,1.61,2.69Z"/>
      <path class="cls-1" d="M129.16,385.32l-.54,2.15h-1.06c-.2-1.22.18-2.27,1.61-2.15Z"/>
      <polygon class="cls-1" points="120.55 403.07 118.94 403.07 118.95 402.27 120.29 400.92 120.55 403.07"/>
      <path class="cls-1" d="M89.34,358.94h-2.69s0-1.07,0-1.07c1.01-.08,2.36-.15,2.69,1.07Z"/>
      <rect class="cls-1" x="50.63" y="356.56" width="1.53" height="1.53" transform="translate(-237.63 141.02) rotate(-45)"/>
      <path class="cls-1" d="M51.66,437.52c-.39,1.14-2.79.12-3.76,1.07-.46-2,2.62-.77,3.76-1.07Z"/>
      <path class="cls-1" d="M59.74,391.77v-1.06s2.14-1.09,2.14-1.09c.21,1.04-.71,1.49-1.35,2.15h-.8Z"/>
      <polygon class="cls-1" points="110.33 368.09 108.72 368.09 109.26 365.4 109.79 365.4 110.33 368.09"/>
      <rect class="cls-1" x="47.11" y="361.83" width=".84" height="6.13" transform="translate(-314.8 300.72) rotate(-72.53)"/>
      <path class="cls-1" d="M51.13,422.45c.55.56-1.07,2.16-1.61,1.61s1.07-2.16,1.61-1.61Z"/>
      <polygon class="cls-1" points="100.1 367.56 100.1 368.09 97.42 368.63 97.42 367.56 100.1 367.56"/>
      <path class="cls-1" d="M86.11,431.6l-.8,1.6c-1.45-1.26-1.09-1.88.8-1.6Z"/>
      <rect class="cls-1" x="54.9" y="436.44" width="3.22" height=".53"/>
      <polygon class="cls-1" points="120.55 370.25 118.94 370.52 115.71 369.17 120.55 370.25"/>
      <path class="cls-1" d="M133.47,397.7c.07.07-.03.35,0,.53-.44.21-2.98-.35-2.68-1.07.29-.13,2.52.38,2.68.54Z"/>
      <path class="cls-1" d="M100.1,443.43h-.53s-.54-2.69-.54-2.69c1.22.32,1.15,1.68,1.07,2.69Z"/>
      <polygon class="cls-1" points="88.26 419.75 87.2 419.75 86.65 417.6 88.26 419.75"/>
      <path class="cls-1" d="M121.63,408.46v.53s-2.69,0-2.69,0c.4-1.48,1.55-.56,2.69-.53Z"/>
      <path class="cls-1" d="M72.65,392.84c-.07.07-.35-.03-.53,0-.21-.44.35-2.98,1.07-2.68.13.29-.38,2.52-.54,2.68Z"/>
      <polygon class="cls-1" points="96.33 442.9 96.33 443.43 93.65 443.97 93.65 442.9 96.33 442.9"/>
      <path class="cls-1" d="M90.41,422.44c-2.18-.8-2.18-.81,0-1.61v1.61Z"/>
      <polygon class="cls-1" points="47.36 422.98 46.29 422.98 47.09 421.37 47.36 422.98"/>
      <polygon class="cls-1" points="106.56 373.48 106.56 374.27 105.49 375.09 105.49 373.48 106.56 373.48"/>
      <path class="cls-1" d="M57.05,426.21l-2.14,4.84c.03-1.26.47-2.51.94-3.65.33-.8-.33-1.46,1.21-1.18Z"/>
      <polygon class="cls-1" points="75.34 430.52 73.73 428.91 75.08 429.44 75.34 430.52"/>
      <rect class="cls-1" x="97.95" y="365.94" width="2.69" height=".53"/>
      <polygon class="cls-1" points="86.11 365.4 84.5 365.4 84.5 364.33 85.3 364.33 86.11 365.4"/>
      <path class="cls-1" d="M75.88,388.55c.56.26-1.45,1.29-2.15,1.07.26-1.03,1.19-1.21,2.15-1.07Z"/>
      <rect class="cls-1" x="78.04" y="384.24" width=".53" height="2.69"/>
      <polygon class="cls-1" points="132.93 416.53 132.39 418.67 131.86 418.67 131.86 416.53 132.93 416.53"/>
      <polygon class="cls-1" points="56.51 395 55.69 396.07 54.9 396.07 54.9 395 56.51 395"/>
      <polygon class="cls-1" points="115.72 385.31 115.98 383.7 116.78 384.5 115.72 385.31"/>
      <rect class="cls-1" x="104.42" y="389.62" width=".53" height="2.15"/>
      <path class="cls-1" d="M72.65,420.83c-.2.26-1.42-.94-1.07-1.61.2-.26,1.42.94,1.07,1.61Z"/>
      <path class="cls-1" d="M50.6,444.51c-.36-.67.86-1.88,1.07-1.61.36.67-.86,1.88-1.07,1.61Z"/>
      <rect class="cls-1" x="72.66" y="393.93" width=".53" height="2.15"/>
      <rect class="cls-1" x="121.64" y="405.23" width=".53" height="2.15"/>
      <path class="cls-1" d="M100.1,415.44c-.67.36-1.88-.86-1.61-1.07.67-.36,1.88.86,1.61,1.07Z"/>
      <circle class="cls-1" cx="57.06" cy="363.24" r=".66"/>
      <rect class="cls-1" x="101.72" y="365.94" width="2.15" height=".53"/>
      <rect class="cls-1" x="111.41" y="368.1" width="2.15" height=".53"/>
      <rect class="cls-1" x="131.33" y="419.76" width=".53" height="1.61"/>
      <polygon class="cls-1" points="73.73 364.87 72.66 365.94 72.66 364.87 73.73 364.87"/>
      <polygon class="cls-1" points="91.49 359.48 91.23 360.55 90.42 359.49 91.49 359.48"/>
      <polygon class="cls-1" points="80.19 356.25 79.11 356.25 79.92 355.18 80.19 356.25"/>
      <polygon class="cls-1" points="53.82 398.22 52.74 398.22 53.55 397.15 53.82 398.22"/>
      <polygon class="cls-1" points="58.12 394.46 57.05 394.46 57.86 393.39 58.12 394.46"/>
      <polygon class="cls-1" points="110.87 408.46 109.8 409.53 109.79 408.46 110.87 408.46"/>
      <polygon class="cls-1" points="71.58 389.62 71.31 390.69 70.5 389.62 71.58 389.62"/>
    </g>
    <polygon class="cls-1" points="230.34 467.65 229.27 467.64 230.08 466.57 230.34 467.65"/>
    <path class="cls-1" d="M479.41,470.45c.39.67.04,1.79.12,2.57l.54-1.07c1.54.35.57,1.61.73,2.34.18.8,1.65,5.51,1.41,5.73h-2.15s1.07-2.14,1.07-2.14l-1.5.25-.92,1.36v-1.62s-1.61,1.67-1.61,1.67l-3.5-1.95c-.36-.95,2.88-1.24.14-1.96l-.68-4.22,1.87,1.61.82-1.06-1.61-1.08,2.69.53v-1.61s-1.61.54-1.61.54c-.29-2.75,3.69-.74,4.18.12Z"/>
    <rect class="cls-1" x="46.28" y="468.72" width="6.46" height="10.76"/>
    <path class="cls-1" d="M43.59,481.11c-.44.71-.34,1.79-1.07,1.61v-1.61s1.07,0,1.07,0Z"/>
    <polygon class="cls-1" points="44.13 479.48 43.06 479.48 43.06 478.41 44.13 479.48"/>
    <path class="cls-1" d="M137.77,467.65c.13,1.9-1.66.32-.53,2.69l1.08-1.61c1.16.95.06,1.34,2.14.54l-1.1,2.95,1.1.28c.18,1.04-1.46-.03-1.08,1.33.17.6,1.26-.02,1.08.54l-4.3.81-.27-2.15-1.88,1.61,1.08-2.41-1.61.25c-.5-3.15,1.64-2.91,2.03-3.34.67-.74-1.01-1.59,2.26-1.5ZM138.45,473.56c0-.37-.3-.66-.66-.66s-.66.3-.66.66.3.66.66.66.66-.3.66-.66Z"/>
    <polygon class="cls-1" points="139.39 485.4 134.55 485.4 136.97 477.34 139.39 485.4"/>
    <circle class="cls-1" cx="138.87" cy="467.64" r=".66"/>
    <path class="cls-1" d="M199.71,480l1.58.03-.82,1.08c-1.29-.82-1.98-.95-3.48-.55l1.08-4.3c2.44-.35,1.27,3.36,1.66,3.74Z"/>
    <path class="cls-1" d="M291.16,483.79l-2.68-1.08,2.15-1.08c-.29-2.87-3.4-1-1.07-3.76,2.06,1.5,1.9,3.7,1.6,5.91Z"/>
    <path class="cls-1" d="M291.16,475.73c-.53,1.48-2.34,1.45-3.23.26l3.23-.26Z"/>
    <circle class="cls-1" cx="171.7" cy="467.1" r=".66"/>
    <g>
      <g>
        <path d="M369.74,375.62c-1.93.13-1.69-1.95-1.61-3.22l1.91.53-.3,2.7Z"/>
        <path d="M369.2,368.09c-1.44,1.84-1.12-5.02-1.07-5.38,1.77.92.48,3.77,1.07,5.38Z"/>
        <g>
          <g>
            <path d="M467.69,346.03c-.06,2.42.07,4.87.03,7.29-.02,1.7-.01,2.56,0,4.25.08,12.65-.13,25.32-.03,37.97h-28.79c-1.14-1.15-1.82-3.52-1.89-5.12-.06-1.36.39-.51,1.08-.26.51-2.76-1.78-4.28-2.79-6.63-1.08-2.49-1.37-5.22-2.58-7.64l-16.16-.27.04,6.96c1.05-.37,2.48.9,2.93.9.3,0,1.13-.79,2.12-.9,7.44-.81,1.74,4.8,5.41,8.09,3.13-2.49-1.46-3.9,0-6.98.82-1.73,2.58-.4,4.04-.54v11.3l-1.89-1.61c-1.05,1.72,1.55,2.37,1.87,4.04.66,3.43-.92,8.82.01,12.63h-14.53v7.53l9.39-.04.56,1.66.56-1.66,6.09-.04c1.07-.68,1.46-8.63,3.3-9.61l1.63,5.1-1.62.54,1.08,1.88.8-1.07,1.88,1.88-2.68,3.5,3.76-1.61-1.08,2.14,2.04-.15,1.24-3.02,3.18.48c.54-3.98-1.14-4.72-4.84-4.3l1.11.83-.58,2.39c-3.53.59-2.51-4.17-2.78-4.74-.06-.13-.92-.11-1.15-.77-.36-1.01-1.81-4.61-1.88-5.11-.29-2.05,1.81-4.91,1.51-7.15h9.69c-1.17,1.31-4.06,3.45-3.55,5.39.98,3.38,5.6-.02,6.51,2.69,2.49-2.41,1.89-5.11-1.88-5.4l.53-2.68h18.3c-.29,2.04.15,5.73-.23,7.57-.26,1.29-1.93,2.62-1.12,3.73l1.34-1.07-.02,29.3c-1.14,2.29-2.13,4.48-4.01,6.26-.71.67-1.65-.91-1.35,1.3.39,2.8,4.74-5.05,5.38-4.57v7s-99.56,0-99.56,0c-.72-2.84.99-6.43.82-8.9-.05-.76-.79-1.54-.84-2.65-.12-2.41.12-4.87.01-7.28h2.16s-.53-2.69-.53-2.69l1.61.54c-.75-2.58,2.61-3.27,2.71-3.5.23-.54.08-1.8-.81-1.34-.78.4-1.44,3.03-4.04,2.15,1.23-2.19-.58-2.39-.97-3.6-1.74-5.43,5.02-2.6,7.62-3.46l.65-.43c.64-13.62.11-27.34-.3-40.94h-4.31s1.62-1.35,1.62-1.35c-3.98-4.15-2.48-9.98-3.24-15.33l-2.14,2.69c-.94-1.95.97-5.16.96-6.09-.01-.77-.87-2.03-.96-3.32-.16-2.09-.07-4.19.54-6.19h99.03ZM410.64,353.57h-1.61s0,1.61,0,1.61h1.07s.54-1.61.54-1.61ZM459.33,354.23c-3.35,2.21.11,9.73,2.93,5.45,1.45-2.21-.41-5.2-2.93-5.45ZM419.25,355.18c-2.92-.11-4.29,2.19-4.3,4.83,1.07-.32.82-2.04,1.59-2.98.85-1.05,2.35-.81,2.71-1.86ZM426.79,355.18h-2.15s0,.53,0,.53l2.14.54v-1.07ZM452.08,356.79v-1.61h-.53v1.61h.53ZM435.94,355.72l-2.15.54v1.06c1.22.2,2.27-.18,2.15-1.61ZM402.16,356.92l-2.15,2.15.55.55,2.15-2.15-.55-.55ZM451.54,360.55v-2.69h-.53v2.69h.53ZM384.27,360.56l4.84.27c-1.07-1.06-5.49-3.62-4.84-.27ZM409.57,358.95h-1.61s0,1.07,0,1.07h.8s.82-1.07.82-1.07ZM443.47,363.78l-5.38-4.83c1.42,1.92,2.8,4.36,5.38,4.83ZM399.03,360.17l-4.18,3.37.61.76,4.18-3.37-.61-.76ZM416.02,363.25v-2.69h-.53v2.69h.53ZM453.16,361.63c-.04-.35.03-.72,0-1.08l-1.07.81c-.02.49.71.23,1.07.27.04.35-.03.72,0,1.07,1.12.15,1.22.05,1.07-1.07-.35-.03-.72.04-1.07,0ZM386.42,361.64l-1.6.8.8.8.8-1.6ZM447.24,367.01c-.39-.88-1.18-1.78-2.15-1.6.39.88,1.18,1.78,2.15,1.6ZM451.54,368.09l.54-2.69-1.57,1.39,1.03,1.29ZM403.65,370.78c1.2.21,2.28-.18,2.15-1.61l-2.15,1.61ZM428.4,369.17l-1.35.53-.26,1.08,1.61-.54v-1.07ZM442.4,371.86l-1.61-.54.8,1.6.81-1.06ZM460.68,375.06c.41-.58-.79-3.15-1.33-3.19-1.3-.09-.3,2.51-.38,2.62-.17.22-1.44-.32-.97,1.14l2.67-.56ZM438.63,375.08l-.8-2.13c-1.55.75-3.3,1.04-2.96,3.21l3.76-1.08ZM382.65,379.39c.73-2.02,1.98-3.94-.53-5.38l.53,5.38ZM401.49,378.32l-3.22.54v.53s3.22,0,3.22,0v-1.07ZM440.78,381v-2.69h-.53v2.69h.53ZM382.12,380.47c-.59-.58-2.82,1.9-3.17,2.49.4,1.22,1.27,3.25,2.64,2.04l.53-4.53ZM388.57,383.7c-2.22-.06-1.53,3.65-.26,4.3l.26-4.3ZM438.63,383.69c-2.79-.23-.66,4.11.8,3.77l.82-1.06c-1.65-.06-1.75-1.27-1.62-2.71ZM446.16,384.24h-1.61c-.19.73.9.63,1.61,1.07v-1.07ZM418.71,385.32h-1.61s.54,2.15.54,2.15c1.07-.29,1.21-1.15,1.07-2.15ZM381.58,389.62c-1.41-.21-2.79.75-2.68,2.15,1.05-.54,2.9-.59,2.68-2.15ZM415.48,391.23l-.53-1.35-1.08-.26,1.61,1.61ZM447.24,389.62c-.82-.4-2.66,1.53-2.14,2.15.93-.47,2.37-.85,2.14-2.15ZM455.31,391.76c-.32-1.22-1.69-1.12-2.69-1.07.32,1.22,1.69,1.12,2.69,1.07ZM386.96,393.92l-.26-2.15c-.83.58-.94,1.16-.81,2.15h1.07ZM404.18,393.39c-1.37-.5-2.6,2.71-2.15,3.22l4.3.54c-.16-2.31-3.05-.66-2.15-3.76ZM413.87,400.92c-1.06-2.56,2.94-6.64-.53-6.99,1.34,1.43.97,2.33-.67,3.36-4.85.51-8.86,3.74-13.86,3.09l.26,1.06,14.27-2.68.54,2.15ZM379.96,396.08c-1.75-.39-1.25,2.84-1.61,3.76l1.61-3.76ZM398.26,397.15l-1.61.35c.31,2.27-1.19,4.01-1.61,6.1l3.22-6.45ZM418.18,401.45l-1.07-1.07v1.07s1.07,0,1.07,0ZM390.87,401.45c0-.37-.3-.66-.66-.66s-.66.3-.66.66.3.66.66.66.66-.3.66-.66ZM413.87,410.07v-8.07c-1,.22-.45,2.09-.89,3.12-.35.82-1.26.46-1.26.91s.91.1,1.26.91c.44,1.03-.11,2.91.89,3.12ZM429.48,404.14c.14-1.93-1.95-1.68-3.22-1.61l1.09,1.91,2.13-.3ZM416.02,412.75l.54-9.15c-.97.2-1.01,1.06-1.09,1.86-.21,1.93-.4,4.52-.52,6.49-.07,1.07.12.84,1.08.8ZM406.88,414.37c1.73-1.36,2.15-4.44,2.14-6.45l-2.14,6.45ZM398.8,409h-3.22v.53h3.22v-.53ZM392.34,410.07h-1.61v.53h1.61v-.53ZM403.11,410.61l-2.69.82,1.34,2.4,1.34-3.22ZM413.33,415.45l.54-4.84c-1,.21-.98,1.06-1.09,1.86-.07.53-.37,3.01.55,2.98ZM451.54,412.75l-.8-2.15-.81,1.33,1.61.81ZM463.92,411.15c-1.65-.15-1.75,1.36-1.61,2.69,1.65.15,1.75-1.36,1.61-2.69ZM401.44,415.5l-2.09-.59c-.57,5.71,3.54,2.13,2.09.59ZM392.34,415.99h-1.06s-.54,2.15-.54,2.15l1.6-1.35v-.8ZM413.33,417.6v-1.61h-.53v1.61h.53ZM435.41,418.68c.2.26,1.42-.94,1.07-1.61-.2-.26-1.42.94-1.07,1.61ZM405.27,424.06c1.71-1.12,1.57-4.11,1.6-5.92-1.44,1.12-1.32,4.21-1.6,5.92ZM397.19,421.9l1.61-.81-.81-1.33-.8,2.15ZM433.79,421.37c.2.26,1.42-.94,1.07-1.61-.2-.26-1.42.94-1.07,1.61ZM391.81,425.13l.27-3.75c-1.57,1.62-2.14,3.7-1.88,5.91,1.48-1.01,1.83.48,3.22.53l-.06-2.66-1.56-.03ZM462.31,423.53h-1.61v.53h1.61v-.53ZM466.07,423.53h-2.15v.53h2.15v-.53ZM416.56,428.9c-1.32-5.01-2.88-6.53-6.45-1.88l3.76-1.89c.01,1.56.84,3.75,2.69,3.76ZM373.51,426.21l2.15-.26.53-1.35-2.68,1.08v.53ZM451.54,426.21c.36-.67-.86-1.88-1.07-1.61-.36.67.86,1.88,1.07,1.61ZM374.04,426.75h-1.07c-.21,1.22.46,2.23,1.61,2.69l-.54-2.69ZM425.85,427.28c0-.37-.3-.66-.66-.66s-.66.3-.66.66.3.66.66.66.66-.3.66-.66ZM438.09,429.97c-1.42-1.83-4.82-2.02-7-2.14,1.45,1.6,4.93,1.42,7,2.14ZM447.24,427.83l-2.15.26c.58.83,1.16.94,2.15.81v-1.07ZM395.24,428.02l-.41.69,2.69,1.61.41-.69-2.69-1.61ZM407.01,428.89c0-.37-.3-.66-.66-.66s-.66.3-.66.66.3.66.66.66.66-.3.66-.66ZM375.12,433.75c-2.12-.08-1.61,2.27-1.61,3.76,2.1-.07,2.25-2.4,1.61-3.76ZM416.02,434.83l-2.69-.54c.34,1.24,1.71,1.14,2.69,1.07v-.53ZM423.56,435.37l-4.3.26c.71,1.11,1.21.51,2.02.46.56-.03,2.42.06,2.28-.72ZM413.28,437.02l-2.1-.59c-.27,1.33,1.11,1.44,1.88,2.15l.21-1.56ZM409.57,445.04c-.56-1.24-8.16-8.56-9.15-7.53-.27,2.65,2.53,3.1,4.03,4.3,1.66,1.33,2.56,3.7,5.11,3.22ZM410.11,437.51l1.34,3.22c1.49-.82-.63-2.76-1.34-3.22ZM371.89,440.21h-1.07v1.61h1.07v-1.61ZM418.71,442.36c-4.46.75.31,5.06.33,2.12l-.33-2.12Z"/>
            <path class="cls-1" d="M459.33,354.23c2.52.26,4.38,3.24,2.93,5.45-2.82,4.28-6.27-3.24-2.93-5.45Z"/>
            <path class="cls-1" d="M413.87,400.92l-.54-2.15-14.27,2.68-.26-1.06c4.99.65,9-2.59,13.86-3.09,1.64-1.03,2.01-1.93.67-3.36,3.47.35-.52,4.42.53,6.99Z"/>
            <path class="cls-1" d="M409.57,445.04c-2.55.48-3.46-1.9-5.11-3.22-1.5-1.2-4.31-1.65-4.03-4.3.99-1.03,8.59,6.28,9.15,7.53Z"/>
            <path class="cls-1" d="M391.81,425.13l1.56.03.06,2.66c-1.4-.05-1.74-1.55-3.22-.53-.25-2.21.31-4.29,1.88-5.91l-.27,3.75Z"/>
            <path class="cls-1" d="M416.56,428.9c-1.85-.02-2.68-2.2-2.69-3.76l-3.76,1.89c3.57-4.65,5.13-3.13,6.45,1.88Z"/>
            <path class="cls-1" d="M382.12,380.47l-.53,4.53c-1.37,1.21-2.24-.82-2.64-2.04.35-.59,2.58-3.07,3.17-2.49Z"/>
            <path class="cls-1" d="M404.18,393.39c-.9,3.1,1.99,1.46,2.15,3.76l-4.3-.54c-.45-.51.78-3.72,2.15-3.22Z"/>
            <path class="cls-1" d="M416.02,412.75c-.96.04-1.14.27-1.08-.8.12-1.96.31-4.56.52-6.49.09-.8.12-1.66,1.09-1.86l-.54,9.15Z"/>
            <path class="cls-1" d="M438.63,375.08l-3.76,1.08c-.33-2.17,1.41-2.46,2.96-3.21l.8,2.13Z"/>
            <path class="cls-1" d="M384.27,360.56c-.66-3.35,3.77-.79,4.84.27l-4.84-.27Z"/>
            <polygon class="cls-1" points="403.11 410.61 401.76 413.82 400.42 411.42 403.11 410.61"/>
            <path class="cls-1" d="M413.87,410.07c-1-.22-.45-2.09-.89-3.12-.35-.82-1.26-.46-1.26-.91s.91-.1,1.26-.91c.44-1.03-.11-2.91.89-3.12v8.07Z"/>
            <path class="cls-1" d="M460.68,375.06l-2.67.56c-.48-1.46.79-.91.97-1.14.08-.1-.92-2.7.38-2.62.53.04,1.73,2.61,1.33,3.19Z"/>
            <path class="cls-1" d="M375.12,433.75c.64,1.36.5,3.69-1.61,3.76,0-1.49-.52-3.84,1.61-3.76Z"/>
            <path class="cls-1" d="M438.09,429.97c-2.07-.72-5.55-.54-7-2.14,2.17.12,5.57.31,7,2.14Z"/>
            <path class="cls-1" d="M382.65,379.39l-.53-5.38c2.5,1.44,1.26,3.36.53,5.38Z"/>
            <path class="cls-1" d="M401.44,415.5c1.45,1.54-2.65,5.11-2.09-.59l2.09.59Z"/>
            <path class="cls-1" d="M429.48,404.14l-2.13.3-1.09-1.91c1.27-.08,3.36-.32,3.22,1.61Z"/>
            <path class="cls-1" d="M438.63,383.69c-.13,1.44-.03,2.64,1.62,2.71l-.82,1.06c-1.46.34-3.59-4-.8-3.77Z"/>
            <path class="cls-1" d="M418.71,442.36l.33,2.12c-.02,2.94-4.79-1.38-.33-2.12Z"/>
            <path class="cls-1" d="M405.27,424.06c.28-1.7.16-4.8,1.6-5.92-.03,1.81.11,4.79-1.6,5.92Z"/>
            <path class="cls-1" d="M388.57,383.7l-.26,4.3c-1.27-.65-1.95-4.36.26-4.3Z"/>
            <path class="cls-1" d="M406.88,414.37l2.14-6.45c.01,2.01-.42,5.09-2.14,6.45Z"/>
            <path class="cls-1" d="M419.25,355.18c-.36,1.05-1.86.81-2.71,1.86-.76.94-.52,2.65-1.59,2.98.01-2.64,1.38-4.94,4.3-4.83Z"/>
            <path class="cls-1" d="M379.96,396.08l-1.61,3.76c.36-.92-.14-4.15,1.61-3.76Z"/>
            <rect class="cls-1" x="394.56" y="361.75" width="5.37" height=".98" transform="translate(-139.37 329.61) rotate(-38.88)"/>
            <path class="cls-1" d="M463.92,411.15c.14,1.33.04,2.83-1.61,2.69-.14-1.33-.04-2.83,1.61-2.69Z"/>
            <path class="cls-1" d="M413.33,415.45c-.93.04-.62-2.45-.55-2.98.11-.8.09-1.66,1.09-1.86l-.54,4.84Z"/>
            <path class="cls-1" d="M381.58,389.62c.22,1.56-1.63,1.61-2.68,2.15-.11-1.4,1.27-2.35,2.68-2.15Z"/>
            <path class="cls-1" d="M410.11,437.51c.71.46,2.83,2.4,1.34,3.22l-1.34-3.22Z"/>
            <path class="cls-1" d="M413.28,437.02l-.21,1.56c-.77-.7-2.15-.82-1.88-2.15l2.1.59Z"/>
            <path class="cls-1" d="M374.04,426.75l.54,2.69c-1.14-.46-1.82-1.46-1.61-2.69h1.07Z"/>
            <path class="cls-1" d="M423.56,435.37c.14.79-1.71.69-2.28.72-.82.05-1.31.65-2.02-.46l4.3-.26Z"/>
            <path class="cls-1" d="M398.26,397.15l-3.22,6.45c.42-2.09,1.92-3.83,1.61-6.1l1.61-.35Z"/>
            <path class="cls-1" d="M435.94,355.72c.12,1.43-.93,1.81-2.15,1.61v-1.06s2.15-.54,2.15-.54Z"/>
            <path class="cls-1" d="M447.24,389.62c.23,1.3-1.21,1.68-2.14,2.15-.52-.62,1.33-2.55,2.14-2.15Z"/>
            <path class="cls-1" d="M418.71,385.32c.14,1,0,1.86-1.07,2.15l-.54-2.15h1.61Z"/>
            <polygon class="cls-1" points="401.49 378.32 401.49 379.39 398.27 379.39 398.27 378.86 401.49 378.32"/>
            <polygon class="cls-1" points="397.19 421.9 397.99 419.76 398.8 421.09 397.19 421.9"/>
            <polygon class="cls-1" points="451.54 368.09 450.51 366.8 452.08 365.4 451.54 368.09"/>
            <polygon class="cls-1" points="373.51 426.21 373.51 425.68 376.19 424.6 375.67 425.95 373.51 426.21"/>
            <polygon class="cls-1" points="451.54 412.75 449.93 411.94 450.74 410.61 451.54 412.75"/>
            <path class="cls-1" d="M455.31,391.76c-1,.05-2.37.16-2.69-1.07,1-.05,2.37-.16,2.69,1.07Z"/>
            <path class="cls-1" d="M443.47,363.78c-2.58-.47-3.96-2.92-5.38-4.83l5.38,4.83Z"/>
            <path class="cls-1" d="M403.65,370.78l2.15-1.61c.13,1.43-.95,1.81-2.15,1.61Z"/>
            <path class="cls-1" d="M447.24,427.83v1.07c-.99.13-1.57.02-2.15-.81l2.15-.26Z"/>
            <rect class="cls-1" x="395.98" y="427.6" width=".81" height="3.13" transform="translate(-175.37 549.2) rotate(-59.13)"/>
            <rect class="cls-1" x="399.84" y="357.88" width="3.04" height=".77" transform="translate(-135.78 388.76) rotate(-45)"/>
            <polygon class="cls-1" points="410.64 353.57 410.1 355.18 409.03 355.17 409.03 353.56 410.64 353.57"/>
            <path class="cls-1" d="M386.96,393.92h-1.07c-.13-.99-.02-1.57.81-2.15l.26,2.15Z"/>
            <polygon class="cls-1" points="392.34 415.99 392.34 416.79 390.74 418.14 391.28 415.99 392.34 415.99"/>
            <polygon class="cls-1" points="428.4 369.17 428.4 370.24 426.79 370.78 427.06 369.7 428.4 369.17"/>
            <rect class="cls-1" x="395.58" y="409" width="3.22" height=".53"/>
            <rect class="cls-1" x="370.82" y="440.21" width="1.07" height="1.61"/>
            <path class="cls-1" d="M447.24,367.01c-.97.18-1.76-.73-2.15-1.6.97-.18,1.76.73,2.15,1.6Z"/>
            <path class="cls-1" d="M416.02,434.83v.53c-.98.08-2.35.17-2.69-1.07l2.69.54Z"/>
            <polygon class="cls-1" points="386.42 361.64 385.62 363.24 384.82 362.44 386.42 361.64"/>
            <polygon class="cls-1" points="442.4 371.86 441.59 372.92 440.79 371.32 442.4 371.86"/>
            <rect class="cls-1" x="415.49" y="360.56" width=".53" height="2.69"/>
            <polygon class="cls-1" points="409.57 358.95 408.75 360.01 407.96 360.02 407.96 358.95 409.57 358.95"/>
            <rect class="cls-1" x="451.01" y="357.87" width=".53" height="2.69"/>
            <polygon class="cls-1" points="415.48 391.23 413.87 389.62 414.95 389.88 415.48 391.23"/>
            <polygon class="cls-1" points="426.79 355.18 426.78 356.25 424.64 355.71 424.64 355.18 426.79 355.18"/>
            <rect class="cls-1" x="440.25" y="378.32" width=".53" height="2.69"/>
            <path class="cls-1" d="M446.16,384.24v1.07c-.71-.44-1.8-.34-1.61-1.07h1.61Z"/>
            <path class="cls-1" d="M433.79,421.37c-.36-.67.86-1.88,1.07-1.61.36.67-.86,1.88-1.07,1.61Z"/>
            <circle class="cls-1" cx="390.2" cy="401.45" r=".66"/>
            <rect class="cls-1" x="463.93" y="423.53" width="2.15" height=".53"/>
            <path class="cls-1" d="M451.54,426.21c-.2.26-1.42-.94-1.07-1.61.2-.26,1.42.94,1.07,1.61Z"/>
            <path class="cls-1" d="M453.16,361.63c.35.04.72-.03,1.07,0,.15,1.12.05,1.22-1.07,1.07-.03-.35.04-.72,0-1.07-.36-.04-1.09.23-1.07-.27l1.07-.81c.04.35-.04.72,0,1.08Z"/>
            <circle class="cls-1" cx="425.19" cy="427.28" r=".66"/>
            <path class="cls-1" d="M435.41,418.68c-.36-.67.86-1.88,1.07-1.61.36.67-.86,1.88-1.07,1.61Z"/>
            <circle class="cls-1" cx="406.35" cy="428.89" r=".66"/>
            <rect class="cls-1" x="390.73" y="410.07" width="1.61" height=".53"/>
            <polygon class="cls-1" points="418.18 401.45 417.1 401.45 417.11 400.38 418.18 401.45"/>
            <rect class="cls-1" x="451.55" y="355.18" width=".53" height="1.61"/>
            <rect class="cls-1" x="460.7" y="423.53" width="1.61" height=".53"/>
            <rect class="cls-1" x="412.8" y="415.99" width=".53" height="1.61"/>
          </g>
          <g>
            <path d="M510.06,356.28c-.32.15-.17,1.54-1.46,1.04l.54-1.61-1.88-.03-.3,1.58c-3.74-.72-8.65,3.54-11.99,2.75-.51-.12-.11-1.54-1.63-1.01l-3.32,3.16-1.06-2.14c-1.38,2.98-5.31.67-8.06,3.23l-1.62-5.92c-1.65.98-.34,5.92-.81,6.45l-8.04-1.64c-.99-2.37,1.19-3.24,1.09-4.55-.08-1.05-1.03-.52-1.17-1.57-.38-3.03.36-6.86.04-9.99h92.03v29.87l-8.35,7.8-.75-.07-.06-1c-1.87.58-1.35,2.69-2.12,4.06-1.45,2.58-7.53,6.57-9.45,9.38-.3-2.76-.14-9.78-4.58-6.71,2.43,3.12.39,6.03,1.54,9.33-1.73.27-1.67,2.06-2.6,3.04-.68.71-6.31,5.98-6.71,6.21-.99.57-2.36.43-2.46.51-.06.05.59.91.3,1.59-.14.33-4.81,5.02-5.14,5.17-.26.12-2.24-1.08-3.22-.29-.08.96,1.14.35,1.86,1.04.97.93.86,6.55.83,8.1l.56-4.6-.57-2.38h5.38c-.33-.78-.58-1.09-.07-1.9,1.71-2.66,6.74-5.17,8.69-8.07h3.74c-1.65.52-1.49,2.12-2.45,2.91-.28.23-2.7,1.83-3.07,2.06-.56.34-1.59-.04-1.91.23-1.25,1.03-.1,3.51,2.06,2.62-.63-3.06,3.52-3.45,4.57-5.4l1.35.28v1.34c-1.73-.13-1.81-.12-1.61,1.61l.8-1.08.54,1.11c1.69.16,2.16-1.29,2.94-2.45-3.5-.93-1.7-4.03-4.83-5.38l4.57-4.58h20.18v43.05l-4.85,1.88,4.85-.81v3.23s-92.03,0-92.03,0v-1.81s1.08-.61,1.08-.61c-2.28-.91-.58-5.47-1.08-7.8,1.59.81,1.3,3.87,1.07,5.38,3.81-.95-.75-6.08-1.09-8.86-.25-2.03-.23-16.36.29-17.5l5.38-4.85.8,2.15c-.63-3.15,2.31-4.4,4.04-6.44l1.34,1.6c-1.08-2.76.56-3.63,2.41-5.39,4.29-4.07,9.3-7.65,13.56-11.47,1.82-1.63,3.66-4.71,5.84-6.27l.8,3.22,1.08-5.39c2.74,1.15,2.76-1.79,4.01-3.24,1.5-1.75,3.35-4.06,5.68-3.48-.22-2-4.21-1.56-5.38-1.06-1.29.55-8.46,7.15-10.16,8.67-2.17,1.94-7.34,8.01-9.45,8.85-1.68.66-12.29.95-12.97-.03-.35-.49,0-1.62-.52-1.63-.99,3.63-6.27,3.23-6.74-.79-1-8.67.86-19.36.01-28.26l8.05,1.64-2.71,8.81,3.8.85c.46-1.56-1.23-.94-1.56-1.94-.9-2.77,3.41-7.05,6.41-6.13l-.55-1.07c.97-.19,2.01.44,2.89.36,5.02-.47,10.64-4.21,15.73-5.16,1.56-.29-.63,1.56,1.01,1.02,1.27-.42,2.58-3.42,3.48-1.72.57,1.08-.12,1.25,2.18,1.74l.03-1.57c1.29-.12,2.58.05,3.88-.18,4.56-.83,1.88-4.42-.9-2l-.87-1.1-.45-2.37-1.17.22.41,2.17ZM479.53,353.56h-1.07c-.13.99-.02,1.57.81,2.15l.26-2.15ZM522.05,353.56l-3.76,3.5,1.12.58-.59,1.84-3.22-5.38c.2,2.65,2.42,4.84,2.05,7.69-.24,1.85-3.3,2.23-3.14,4.7l-1.6-.54.27,1.62c2.35-1.92,3.27-1.66,6.15-1.05l.57,12.88c.93.13.51-1.22.53-1.87.04-1.26-.26-3.18,0-4.23.11-.43,1.1-.32,1.1-.63-.04-1.8-2.78-7.64-2.42-10.57.3-2.42,2.87-5.81,2.93-8.52ZM482.76,355.17v-1.07s-1.07.81-1.07.81l1.07.26ZM490.84,360.02c.2.26,1.42-.94,1.07-1.61-.2-.26-1.42.94-1.07,1.61ZM525.27,362.17c.4-1.87-1.5-2.43-2.68-3.23-.56.64,2,2.97,2.68,3.23ZM559.18,361.1h-1.61s0,1.07,0,1.07c.71-.44,1.79-.34,1.61-1.07ZM557.85,364.33c-2.11.46.79,3.93,1.33,1.88.2-.77-.33-2.09-1.33-1.88ZM486.64,366.31l-.22.81,4.73,1.25.22-.81-4.73-1.25ZM515.05,369.71c-.32-.35-4.13-.43-4.99-.66-.91-.24-2.6-1.89-3.08-1.49-1,.83.71,1.15,1.07,1.32,2.18,1.02,4.5,1.15,6.74,1.89l.26-1.06ZM497.29,369.17h-1.61v.53h1.61v-.53ZM499.98,370.78l-.8-1.6-.8.8,1.6.8ZM523.12,372.93c.13-1.33.05-2.84-1.61-2.69-.46.47,1.32,3.09,1.61,2.69ZM502.67,370.78l-1.07.26c1.55,2.25-1.18,1.33,0,3.51l2.49-2.04,2.88.96c-.84-1.91-2.59-1.99-4.3-1.07v-1.62ZM548.96,372.93l-.26-1.07-1.35.54v1.07s1.61-.54,1.61-.54ZM477.91,377.78c.87-1.57-3.52-4.57-3.76-4.3l1.12,1.83,2.64,2.47ZM541.43,378.85c1.05,1.07,3.56-2.67,3.78-3.49l-.88-1.32c-3.22.04-3.12,2.2-2.9,4.81ZM549.5,375.09h-1.61s.54,2.68.54,2.68l1.05-.26v-2.43ZM506.97,377.77c.07-.08.07-1.08.53-1.35l-1.06-.8v2.15c.17-.03.46.07.53,0ZM524.74,377.24l-.26-1.61-.8.8,1.06.81ZM502.13,377.78v-1.61h-.53v1.61h.53ZM498.37,377.79c-.12-.12-1.73-.6-2.15-.54.26,1.03,1.19,1.21,2.15,1.07-.03-.17.07-.45,0-.53ZM547.88,379.39v-1.07s-1.07.81-1.07.81l1.07.26ZM478.46,384.23c-.64-2.3-2.07-3.93-4.3-4.84-.38,2.66,1.7,4.73,4.3,4.84ZM536.57,380.47c-2.34-.29-.68,3.06.54,3.23l-.54-3.23ZM518.82,382.62l-3.23-1.61.53,1.91,2.7-.3ZM514.96,384.13c.09-.19-.18-2.7-.98-2.58-.11,2.5-2.43,1.63-1.09,4.3-1.06-.25-2.32-1.66-3.22-.27l2.76.59.47,6.67.91-7.94c.06-.58,1.09-.65,1.15-.78ZM500.52,382.09h-1.61v.53h1.61v-.53ZM545.19,385.31l-1.07-1.07v1.07s1.07,0,1.07,0ZM483.3,386.39h-1.07s0,2.68,0,2.68h.53s.54-2.68.54-2.68ZM488.15,390.69c3.18.13.44-4.06-.54-3.22l.54,3.22ZM509.67,387.47c-.54-.55-2.16,1.05-1.61,1.61s2.16-1.05,1.61-1.61ZM534.03,388.53c0-.37-.3-.66-.66-.66s-.66.3-.66.66.3.66.66.66.66-.3.66-.66ZM504.28,391.77v-2.15h-.53v2.15h.53ZM482.22,390.7h-1.07s.81,1.07.81,1.07l.26-1.07ZM520.97,393.39l-2.15-.54.54,2.68,1.61-2.14ZM529.58,395v-.8s-1.07-.82-1.07-.82v1.61s1.07,0,1.07,0ZM503.21,394.47l-4.3-.54c.24,1.23,2.52.77,3.24,1.32s.49,1.65.53,2.43l.53-3.22ZM495.28,396.6c0-.37-.3-.66-.66-.66s-.66.3-.66.66.3.66.66.66.66-.3.66-.66ZM522.04,399.3v-1.61h-.53v1.61h.53ZM517.74,401.99c-.65-1.53-2.65-.41-3.76-1.61-.07,2.16,2.34,1.6,3.76,1.61ZM493.92,403.22l-2.01-.68-.54,4.29c1.24.87,3.96-2.42,2.55-3.62ZM499.58,404.14c0-.37-.3-.66-.66-.66s-.66.3-.66.66.3.66.66.66.66-.3.66-.66ZM510.89,406.29c0-.37-.3-.66-.66-.66s-.66.3-.66.66.3.66.66.66.66-.3.66-.66ZM515.05,407.37l.27-1.61-.27,2.15c-2.89.09-7.53-.94-7,3.23l3.77,1.08-1.07-1.6,4.6-1.62c.44.85-.02,1.33,1.31,1.07l.82-2.15c.66-.29-.43,2.67,1.07,2.14,2.24-.79-2.21-3.71-3.49-2.69ZM501.52,408.93l-.59,3.72.66.1.59-3.72-.66-.1ZM560.25,409.53l-1.07.27.55,2.41-2.15.81,1.33,1.33c1.38-1.13.72-3.17,2.96-2.69l-1.62-2.14ZM557.57,411.15c-3.36-.57-1.52,3.14-.54,2.15l.54-2.15ZM522.59,411.69l-2.14,2.14c1.04.18.21-1.16.6-1.54s1.73.44,1.55-.6ZM482.22,412.22h-1.07s.81,1.07.81,1.07l.26-1.07ZM515.05,413.83c.26-.2-.94-1.42-1.61-1.07-.26.2.94,1.42,1.61,1.07ZM518.28,414.38h-1.61v.53h1.61v-.53ZM502.14,417.06c1.03-.26,1.21-1.19,1.07-2.15-.26-.56-1.29,1.45-1.07,2.15ZM532.98,416.36c-.21-.14-.22-.63-.17-.91l-.86,1.05-3.43.28,1.34,2.42c1.29-2.02,2.12-1.15,4.05-1.32l.53-1.36c-.48.03-1.01.12-1.45-.16ZM515.59,416.53c-1.43-.13-1.81.95-1.61,2.15l1.61-2.15ZM540.35,416.53h-3.22v.53h3.22v-.53ZM558.59,418.21l-1.3.46-.25,2.69,2.69-1.08c.3-.35-1.02-2.03-1.13-2.07ZM498.23,418.61l-1.2,7.47.9.14,1.2-7.47-.9-.14ZM554.33,418.68c-1.69-1.84-1.48,6.43.54,4.84,1.1-2.06-.29-2.89-.54-4.84ZM499.45,419.22c-.13.99-.03,1.57.8,2.14l.8-.8-1.6-1.35ZM474.68,423.52v-1.61h-.53v1.61h.53ZM488.14,424.6h-.8s-1.89,2.14-1.89,2.14c1.29.22,2.79-.69,2.69-2.14ZM492.98,427.29c.36-.67-.86-1.88-1.07-1.61-.36.67.86,1.88,1.07,1.61ZM514.51,426.76h-1.61v.53h1.61v-.53ZM525.81,432.67c.22-.7-.81-2.71-1.07-2.15-.15.96.03,1.89,1.07,2.15ZM483.31,434.82c1.51-.75,2.43-2.01,2.14-3.77l-2.14,3.77ZM554.31,432.63c.87-1.19-1.24-2.08-2.96,0-1.54,1.87-.13,3.33.86,2.48.41-.35.45-1.35.84-1.88.37-.5,1.19-.52,1.26-.61ZM527.43,434.28l-1.07-1.07v1.07s1.07,0,1.07,0ZM554.34,435.36v-1.07s-1.07.81-1.07.81l1.07.26ZM494.6,436.97v-2.15c-.79-.2-.46.78-1.06,1.35l1.06.8ZM542.5,436.43v-.8s-1.07-.82-1.07-.82v1.61s1.07,0,1.07,0ZM489.76,437.51c3.12.6,1.62-2.68,1.08-2.14l-1.08,2.14ZM530.12,436.43l-1.07-1.07v1.07s1.07,0,1.07,0ZM534.97,435.37h-1.07s0,1.07,0,1.07l1.07-1.07ZM520.97,435.9c-1.58-.52-1.43.68-1.79.88-.62.35-1.59-.19-1.44.72,1.21.06,2.75-.38,3.23-1.6ZM516.67,436.98h-.8s-1.89,2.14-1.89,2.14l2.17-.25.52-1.89ZM485.99,438.58l-1.07-1.07v1.07s1.07,0,1.07,0ZM544.65,438.59h-1.62s0,1.6,0,1.6h1.07s.54-1.6.54-1.6ZM550.59,441.28l.81-1.08c-1.02-2.59-4.71-1.29-2.98-.25.47.28,2.09-.93,2.17,1.33ZM555.82,439.28c-.56-.84-2.16-.67-2.02.65l2.69,1.35c-.39-.6-.36-1.53-.67-2ZM527.43,439.13c-.57-.64-5.46,3.77-2.95,4.3,1.13.24,3.51-3.67,2.95-4.3ZM512.9,439.67l-3.76,1.06,8.07,1.62c-.49-1.56-4.76-.61-5.38-1.07l1.07-1.61ZM490.83,443.43h-1.07s-.54,2.14-.54,2.14c1.43.13,1.81-.93,1.61-2.14ZM472,445.58c1.12.06,2.02.21,2.68-.8l-.79-.79-1.89,1.6Z"/>
            <polygon points="511.27 356.26 511.46 357.29 510.29 357.51 510.06 356.28 511.27 356.26"/>
            <path class="cls-1" d="M522.05,353.56c-.06,2.71-2.64,6.1-2.93,8.52-.36,2.93,2.38,8.77,2.42,10.57,0,.31-.99.2-1.1.63-.26,1.05.04,2.96,0,4.23-.02.65.4,2-.53,1.87l-.57-12.88c-2.88-.61-3.81-.86-6.15,1.05l-.27-1.62,1.6.54c-.16-2.47,2.9-2.85,3.14-4.7.37-2.85-1.85-5.04-2.05-7.69l3.22,5.38.59-1.84-1.12-.58,3.76-3.5Z"/>
            <path class="cls-1" d="M515.05,407.37c1.28-1.02,5.73,1.9,3.49,2.69-1.49.53-.4-2.43-1.07-2.14l-.82,2.15c-1.34.25-.88-.22-1.31-1.07l-4.6,1.62,1.07,1.6-3.77-1.08c-.53-4.17,4.11-3.14,7-3.23l.27-2.15-.27,1.61Z"/>
            <path class="cls-1" d="M541.43,378.85c-.22-2.62-.32-4.77,2.9-4.81l.88,1.32c-.23.82-2.74,4.56-3.78,3.49Z"/>
            <path class="cls-1" d="M478.46,384.23c-2.6-.11-4.68-2.18-4.3-4.84,2.23.91,3.66,2.53,4.3,4.84Z"/>
            <path class="cls-1" d="M532.98,416.36c.44.28.97.19,1.45.16l-.53,1.36c-1.93.17-2.76-.7-4.05,1.32l-1.34-2.42,3.43-.28.86-1.05c-.04.28-.04.77.17.91Z"/>
            <path class="cls-1" d="M514.96,384.13c-.06.12-1.09.2-1.15.78l-.91,7.94-.47-6.67-2.76-.59c.9-1.39,2.16.01,3.22.27-1.34-2.67.98-1.8,1.09-4.3.8-.12,1.07,2.39.98,2.58Z"/>
            <path class="cls-1" d="M493.92,403.22c1.41,1.19-1.31,4.48-2.55,3.62l.54-4.29,2.01.68Z"/>
            <path class="cls-1" d="M527.43,439.13c.56.63-1.82,4.54-2.95,4.3-2.51-.53,2.38-4.94,2.95-4.3Z"/>
            <path class="cls-1" d="M554.31,432.63c-.07.09-.89.11-1.26.61-.39.53-.43,1.53-.84,1.88-.99.85-2.41-.62-.86-2.48,1.72-2.09,3.83-1.19,2.96,0Z"/>
            <path class="cls-1" d="M554.33,418.68c.25,1.95,1.64,2.78.54,4.84-2.02,1.59-2.23-6.68-.54-4.84Z"/>
            <path class="cls-1" d="M560.25,409.53l1.62,2.14c-2.24-.49-1.58,1.55-2.96,2.69l-1.33-1.33,2.15-.81-.55-2.41,1.07-.27Z"/>
            <path class="cls-1" d="M502.67,370.78v1.62c1.72-.93,3.47-.84,4.31,1.07l-2.88-.96-2.49,2.04c-1.18-2.18,1.55-1.25,0-3.51l1.07-.26Z"/>
            <rect class="cls-1" x="494.29" y="421.96" width="7.57" height=".91" transform="translate(2.01 847.18) rotate(-80.87)"/>
            <path class="cls-1" d="M558.59,418.21c.11.05,1.43,1.73,1.13,2.07l-2.69,1.08.25-2.69,1.3-.46Z"/>
            <path class="cls-1" d="M477.91,377.78l-2.64-2.47-1.12-1.83c.24-.26,4.62,2.73,3.76,4.3Z"/>
            <path class="cls-1" d="M515.05,369.71l-.26,1.06c-2.25-.75-4.57-.87-6.74-1.89-.36-.17-2.07-.49-1.07-1.32.48-.4,2.17,1.25,3.08,1.49s4.67.31,4.99.66Z"/>
            <polygon class="cls-1" points="518.82 382.62 516.12 382.92 515.59 381.01 518.82 382.62"/>
            <path class="cls-1" d="M503.21,394.47l-.53,3.22c-.04-.78.22-1.86-.53-2.43s-3-.09-3.24-1.32l4.3.54Z"/>
            <path class="cls-1" d="M555.82,439.28c.31.47.28,1.4.67,2l-2.69-1.35c-.14-1.32,1.46-1.49,2.02-.65Z"/>
            <path class="cls-1" d="M512.9,439.67l-1.07,1.61c.62.46,4.89-.49,5.38,1.07l-8.07-1.62,3.76-1.06Z"/>
            <path class="cls-1" d="M557.85,364.33c1-.22,1.54,1.1,1.33,1.88-.54,2.06-3.44-1.41-1.33-1.88Z"/>
            <path class="cls-1" d="M550.59,441.28c-.08-2.26-1.7-1.05-2.17-1.33-1.73-1.04,1.96-2.33,2.98.25l-.81,1.08Z"/>
            <path class="cls-1" d="M536.57,380.47l.54,3.23c-1.22-.17-2.88-3.51-.54-3.23Z"/>
            <polygon class="cls-1" points="516.67 436.98 516.14 438.87 513.98 439.12 515.87 436.98 516.67 436.98"/>
            <path class="cls-1" d="M517.74,401.99c-1.42,0-3.83.55-3.76-1.61,1.11,1.2,3.11.08,3.76,1.61Z"/>
            <rect class="cls-1" x="488.47" y="364.9" width=".84" height="4.89" transform="translate(8.65 745.92) rotate(-75.17)"/>
            <path class="cls-1" d="M483.31,434.82l2.14-3.77c.29,1.76-.63,3.02-2.14,3.77Z"/>
            <path class="cls-1" d="M488.15,390.69l-.54-3.22c.98-.84,3.72,3.35.54,3.22Z"/>
            <path class="cls-1" d="M525.27,362.17c-.68-.26-3.24-2.58-2.68-3.23,1.18.8,3.08,1.36,2.68,3.23Z"/>
            <path class="cls-1" d="M488.14,424.6c.11,1.45-1.4,2.36-2.69,2.14l1.89-2.14h.8Z"/>
            <polygon class="cls-1" points="549.5 375.09 549.49 377.52 548.43 377.78 547.89 375.09 549.5 375.09"/>
            <polygon class="cls-1" points="520.97 393.39 519.37 395.53 518.82 392.85 520.97 393.39"/>
            <path class="cls-1" d="M557.57,411.15l-.54,2.15c-.98.99-2.82-2.72.54-2.15Z"/>
            <path class="cls-1" d="M523.12,372.93c-.29.4-2.07-2.22-1.61-2.69,1.66-.15,1.74,1.36,1.61,2.69Z"/>
            <path class="cls-1" d="M472,445.58l1.89-1.6.79.79c-.66,1.01-1.55.87-2.68.8Z"/>
            <path class="cls-1" d="M522.59,411.69c.18,1.04-1.16.21-1.55.6s.44,1.73-.6,1.54l2.14-2.14Z"/>
            <path class="cls-1" d="M490.83,443.43c.2,1.22-.18,2.27-1.61,2.14l.54-2.15h1.07Z"/>
            <path class="cls-1" d="M489.76,437.51l1.08-2.14c.54-.54,2.04,2.74-1.08,2.14Z"/>
            <path class="cls-1" d="M509.67,387.47c.55.56-1.07,2.16-1.61,1.61s1.07-2.16,1.61-1.61Z"/>
            <path class="cls-1" d="M499.45,419.22l1.6,1.35-.8.8c-.83-.57-.93-1.15-.8-2.14Z"/>
            <path class="cls-1" d="M479.53,353.56l-.26,2.15c-.83-.58-.94-1.16-.81-2.15h1.07Z"/>
            <path class="cls-1" d="M515.59,416.53l-1.61,2.15c-.21-1.2.18-2.28,1.61-2.15Z"/>
            <polygon class="cls-1" points="499.98 370.78 498.38 369.98 499.18 369.18 499.98 370.78"/>
            <rect class="cls-1" x="537.12" y="416.53" width="3.22" height=".53"/>
            <polygon class="cls-1" points="483.3 386.39 482.76 389.08 482.23 389.08 482.23 386.39 483.3 386.39"/>
            <polygon class="cls-1" points="544.65 438.59 544.11 440.2 543.04 440.2 543.04 438.59 544.65 438.59"/>
            <polygon class="cls-1" points="548.96 372.93 547.35 373.47 547.35 372.4 548.69 371.86 548.96 372.93"/>
            <path class="cls-1" d="M525.81,432.67c-1.03-.26-1.21-1.19-1.07-2.15.26-.56,1.29,1.45,1.07,2.15Z"/>
            <path class="cls-1" d="M494.6,436.97l-1.06-.8c.6-.57.27-1.55,1.06-1.35v2.15Z"/>
            <polygon class="cls-1" points="542.5 436.43 541.43 436.43 541.43 434.82 542.5 435.64 542.5 436.43"/>
            <path class="cls-1" d="M502.14,417.06c-.22-.7.81-2.71,1.07-2.15.15.96-.03,1.89-1.07,2.15Z"/>
            <polygon class="cls-1" points="529.58 395 528.51 395 528.51 393.38 529.58 394.2 529.58 395"/>
            <path class="cls-1" d="M506.97,377.77c-.07.07-.35-.03-.53,0v-2.15s1.06.8,1.06.8c-.46.27-.46,1.27-.53,1.35Z"/>
            <path class="cls-1" d="M498.37,377.79c.08.08-.03.35,0,.53-.96.15-1.89-.03-2.15-1.07.42-.06,2.03.42,2.15.54Z"/>
            <path class="cls-1" d="M520.97,435.9c-.47,1.22-2.02,1.66-3.23,1.6-.15-.91.81-.37,1.44-.72.36-.2.21-1.4,1.79-.88Z"/>
            <polygon class="cls-1" points="524.74 377.24 523.68 376.43 524.47 375.63 524.74 377.24"/>
            <circle class="cls-1" cx="533.36" cy="388.53" r=".66"/>
            <rect class="cls-1" x="503.76" y="389.62" width=".53" height="2.15"/>
            <circle class="cls-1" cx="494.61" cy="396.6" r=".66"/>
            <circle class="cls-1" cx="498.92" cy="404.14" r=".66"/>
            <circle class="cls-1" cx="510.22" cy="406.29" r=".66"/>
            <rect class="cls-1" x="499.68" y="410.51" width="3.77" height=".67" transform="translate(17.22 841.85) rotate(-80.99)"/>
            <path class="cls-1" d="M515.05,413.83c-.67.36-1.88-.86-1.61-1.07.67-.36,1.88.86,1.61,1.07Z"/>
            <path class="cls-1" d="M492.98,427.29c-.2.26-1.42-.94-1.07-1.61.2-.26,1.42.94,1.07,1.61Z"/>
            <path class="cls-1" d="M490.84,360.02c-.36-.67.86-1.88,1.07-1.61.36.67-.86,1.88-1.07,1.61Z"/>
            <path class="cls-1" d="M559.18,361.1c.19.73-.9.63-1.61,1.07v-1.07s1.61,0,1.61,0Z"/>
            <polygon class="cls-1" points="547.88 379.39 546.81 379.13 547.88 378.32 547.88 379.39"/>
            <rect class="cls-1" x="501.6" y="376.17" width=".53" height="1.61"/>
            <rect class="cls-1" x="495.68" y="369.17" width="1.61" height=".53"/>
            <polygon class="cls-1" points="527.43 434.28 526.36 434.28 526.36 433.21 527.43 434.28"/>
            <polygon class="cls-1" points="482.22 412.22 481.96 413.29 481.15 412.23 482.22 412.22"/>
            <polygon class="cls-1" points="554.34 435.36 553.27 435.09 554.34 434.28 554.34 435.36"/>
            <rect class="cls-1" x="474.16" y="421.91" width=".53" height="1.61"/>
            <polygon class="cls-1" points="530.12 436.43 529.05 436.43 529.05 435.36 530.12 436.43"/>
            <polygon class="cls-1" points="534.97 435.37 533.9 436.44 533.89 435.36 534.97 435.37"/>
            <polygon class="cls-1" points="482.76 355.17 481.69 354.91 482.76 354.1 482.76 355.17"/>
            <rect class="cls-1" x="516.67" y="414.38" width="1.61" height=".53"/>
            <rect class="cls-1" x="521.52" y="397.69" width=".53" height="1.61"/>
            <polygon class="cls-1" points="482.22 390.7 481.96 391.77 481.15 390.7 482.22 390.7"/>
            <polygon class="cls-1" points="485.99 438.58 484.92 438.59 484.92 437.51 485.99 438.58"/>
            <rect class="cls-1" x="512.9" y="426.76" width="1.61" height=".53"/>
            <polygon class="cls-1" points="545.19 385.31 544.12 385.31 544.12 384.24 545.19 385.31"/>
            <rect class="cls-1" x="498.91" y="382.09" width="1.61" height=".53"/>
          </g>
        </g>
      </g>
      <g>
        <polygon points="311.61 363.79 312.15 365.4 310 364.86 310.82 363.79 311.61 363.79"/>
        <g>
          <path class="cls-1" d="M317.61,388.63c-.49.84,2.17,6.61,2.91,7.41,1.32,1.44,3.32,1.1,5.09,1.11-.84,2.04-2.03,1.36-3.76,1.07-.63.64,2.76,4.95,3.32,6.09,1.97,4.04,2.63,9.06,6.1,12.19.52-.42.88-.95,1.09-1.59.42-1.28,1.67-7.69,1.76-9.05.15-2.11-1.48-3.96.91-5.49,4.6,4.98-3.74,11.04-.8,16.67l-1.62.53c1.06-.14,5.46,4.27,4.84,4.85l-5.38-2.15c-.49.55,1.05,4.35-1.08,3.76-.46-1.36.69-3.41.45-4.47-.19-.83-1.76-1.68-2.3-2.56-2.35-3.83-2.97-8.83-5.16-12.88-1.42-.14-.87-.03-1.06.8-.51,2.2-.61,4.86-1.09,7-.17.77.02,1.67-1.07,1.89-.06-1.48-.05-2.94.14-4.42.25-1.97,1.97-5.67,1.97-6.61,0-.31-2.58-5.28-2.8-5.5-1.86-1.87-11.4-5.05-14.22-6.5-3.4-1.74-5.64-3.62-6.08-7.64l1.56.04c.22,2.04,3.55,6.04,5.15,6.99.66.39,2.74.48,4.16,1.2,2.59,1.32,4.97,3.05,7.7,4.14.72-1.83-1.02-3.93-2.96-3.78l1.07-3.5c-.05-2.91-12.31-4.43-14.54-5.9,6.01.43,12.3,2.59,17.75,4.85-.26.75-1.93,1.2-2.06,1.44Z"/>
          <path class="cls-1" d="M354.67,423.52c-1.81-.73-.39-3.06-.65-4.41-.52-2.76-3.41-3.61-.39-6.65l-1.65-2.92,1.61-.82c-2.39-.75-.57-3.5.53-4.85l-2.09-.85c-.62-2.56,1.23-3.43,2.93-1.59,1.87,2.03-.17,10.36-.31,13.24s1.05,5.87.01,8.85Z"/>
          <path class="cls-1" d="M329.92,369.71c.68,1.23-1.85,3.75-.26,4.3,1.7.59,1.37-1.32,2.21-1.57,1.02-.3,3.12.84,4.55.24l3.19,3.76-1.53.71c-.03-1.91-1.35-.12-2.23-.66-1.12-.69-.31-2.62-3.92-1.81-2.22.49-1.96,1.74-2.87,3.08-.31.45-1.13.51-1.21.64-.25.39,1.47,1.92-.61,1.55l-1.08-4.3,2.08-.62c.61-2.8-.06-3.66-2.07-5.3h3.77Z"/>
          <path class="cls-1" d="M358.97,373.47l-1.09-4.28c-5.71,1.11-10.6-1.8-15.7-3.43-1.7-.54-1.76,1.23-3.1-2.25,2.53-2.31,4.63,1.42,7.23,2.45,4.48,1.77,9.36-.04,13.03,2.9l-.36,4.6Z"/>
          <path class="cls-1" d="M331.53,426.21c.47.38-2.39,6.58-.54,7.52-1.16.16-2.03-.03-2.17-1.34l1.1-4.03c-1.7-1.13-4.17-.54-5.45-.84-1.99-.46-5.79-3.17-1.66-2.57,2.87.42,5.75,1.4,8.71,1.26Z"/>
          <path class="cls-1" d="M343.37,411.15c2.74-.25,5.47,2.35,7.27-.53,4.77,4.93-5.6,3.27-7.27.53Z"/>
          <path class="cls-1" d="M337.99,389.08c.02-1.84-.13-3.68.12-5.52.09-.63.68-2.93,1.48-3.09l.98,2.85-2.58,5.75Z"/>
          <path class="cls-1" d="M351.98,404.15c-.03,3.81-1.93,1.18-3.52,1.08-1.46-.09-4,1.77-2.57-1.09h6.09Z"/>
          <polygon class="cls-1" points="318.08 381.55 317 383.7 317.54 377.78 320.22 381.28 319.42 382.61 318.08 381.55"/>
          <path class="cls-1" d="M354.13,371.86c.47.54-.51,4.22-2.15,3.76-.47-.54.51-4.22,2.15-3.76Z"/>
          <path class="cls-1" d="M328.3,386.39c-1.53,2.06-1.37-5.81.54-5.91l-.54,5.91Z"/>
          <path class="cls-1" d="M359.51,367.01l-4.48-.54-.36-1.6c.18-.2,4.69,1.15,4.84,2.14Z"/>
          <path class="cls-1" d="M322.91,373.48c.52.57-.69,2.58-1.61,2.69-.55-1.01.8-3.57,1.61-2.69Z"/>
          <path class="cls-1" d="M358.44,360.02h-1.07c-.09-1.01-.1-2.05.81-2.69l.26,2.69Z"/>
          <path class="cls-1" d="M355.21,432.13c-.91,1.05-2.43-2.15-.8-2.14.55,0,1.14,1.76.8,2.14Z"/>
          <path class="cls-1" d="M341.75,408.46c.55.56-1.07,2.16-1.61,1.61s1.07-2.16,1.61-1.61Z"/>
          <path class="cls-1" d="M329.91,360.02h-1.07c-.13-.99-.02-1.57.81-2.15l.26,2.15Z"/>
          <rect class="cls-1" x="350.91" y="432.13" width="1.07" height="1.61"/>
          <path class="cls-1" d="M327.77,437.51c-.14-1,0-1.86,1.07-2.15.14,1,0,1.86-1.07,2.15Z"/>
          <path class="cls-1" d="M350.9,401.99c-.07.07-.35-.03-.53,0-.21-.44.35-2.98,1.07-2.68.13.29-.38,2.52-.54,2.68Z"/>
          <polygon class="cls-1" points="338.52 395 338.26 396.61 337.45 395 338.52 395"/>
          <rect class="cls-1" x="342.3" y="371.86" width=".53" height="2.15"/>
          <path class="cls-1" d="M326.69,388.54c-.36-.67.86-1.88,1.07-1.61.36.67-.86,1.88-1.07,1.61Z"/>
          <circle class="cls-1" cx="319.16" cy="407.37" r=".66"/>
          <path class="cls-1" d="M323.99,354.64c.26.2-.94,1.42-1.61,1.07-.26-.2.94-1.42,1.61-1.07Z"/>
          <rect class="cls-1" x="330.46" y="434.82" width=".53" height="1.61"/>
          <polygon class="cls-1" points="335.29 424.06 334.22 423.79 335.29 422.98 335.29 424.06"/>
          <polygon class="cls-1" points="339.6 407.92 338.53 408.99 338.53 407.92 339.6 407.92"/>
          <g>
            <path d="M297.35,346.03c.63.18,7.88,9.63,8.08,10.25.27.83-.23,1.36-.27,2.12,1.84-1.54,5.35,3.68,4.6,4.86-1.02,1.61-3.61.34-5.14.53l2.68,1.88-3.22,5.65c.94,1.01,5.27-5.12,5.63-5.79,1.98-.31,6.75,4.1,7.54,5.81.96,2.08-.31,2.79,2.97,3.75l.52-5.13c1.77.46,2.36-.41,2.71-2.12l-3.22-1.63c2.12-2.03.12-3.32-.03-5.37-.34-4.63-.11-10.27.56-14.81h45.21l-.08,28.72c-.56,1.72-6.36.55-8,.88-.14,2.18.22,4.54-.03,6.7-.13,1.11-1.07,2.01-1.1,3.28-.02,1.03,1.18.53,1.2,1.57.01.93-.46,1.8-.47,2.73-.01,2.4.35,4.84.4,7.25l-2.14-2.69-1.09,5.13,3.27,3.19v37.09s-2.19,1.15-2.19,1.15c1.77,2.38,2.69,3.46,2.15,6.72h-33.64c-.3,0-3.85-4.52-3.5-4.84,2.47-.2,4.64,1.67,6.76,2.12.5.11,2,.4,1.84-.5-2.29-1.5-7.69-1.67-9.45-2.67-.78-.44-8.11-9.04-8.46-9.88-.72-1.75.63-1.48.69-3.07-.23-.22-1.39.52-1.92.5-1.9-.08-6.92-8-8.58-9.65l-.27,4.3-2.15-.53c-.52,1.64,2.15,1.99,2.15,2.15v10.22c-1.76-1.58-4.62-1.61-5.92.53l5.92,1.35v9.96h-45.21v-11.84l2.38.48c1.37-.71.73-1.97.23-3.09l-2.61-.08v-16.15c1.57.12,3.08-.71,3.5,1.09.49-2.02,2.95-.8,4.58-1.08.26-5.77-.36-11.75-.02-17.51.12-2.05,1.8-3.65.58-6.37l2.13-10.57c.84-.62,2.42,1.75,2.79,2.32,2.38,3.7,3.38,9.38,5.82,13.29l1.08-.27c-1.22-2.13.59-4,.94-6.04s.12-4.27.67-6.32h-1.09c.15,2.11-.32,4.16-.8,6.19-.2.86-.37,2.97-1.35,3.22-1.98-3.45-2.71-8.14-4.38-11.5-.76-1.53-2.85-3.18-3.08-3.96-.44-1.54.78-3.35.45-4.99l-1.87,4.29c-1.97-.9-2.4-1.75-1.35-3.75l-8.61.53v-29.6h41.17ZM286.32,353.57h-1.61s0,1.07,0,1.07h.8s.82-1.07.82-1.07ZM294.93,353.56h-2.15s0,.53,0,.53l2.15.54v-1.07ZM284.7,356.25c-.22-.24-.8.93-1.64.85-3.75-.35-7.73-2.25-11.04-2.97-.47-.1-2.51-.44-2.38.5,2.08.28,3.92,1.31,5.9,1.9,2.54.76,4.08,1.61,5.9,2.18,1.71.54,4.27.47,6.49,1.05,4.6,1.21,10.64,5.43,15.07,3.22l-17.98-5.05-.32-1.68ZM323.99,354.64c-.67-.36-1.88.86-1.61,1.07.67.36,1.88-.86,1.61-1.07ZM290.62,357.86l-.02-1.86-.78-.82-1.34,2.68h2.15ZM358.44,360.02l-.26-2.69c-.9.63-.9,1.68-.81,2.69h1.07ZM276.09,359.48l-.26-1.61-.81,1.61h1.07ZM329.91,360.02l-.26-2.15c-.83.58-.94,1.16-.81,2.15h1.07ZM271.25,361.64h-1.07s0,2.15,0,2.15h.53s.54-2.15.54-2.15ZM289.01,361.64h-1.07s0,2.68,0,2.68h.53s.54-2.68.54-2.68ZM268.55,364.32v-1.61h-.53v1.61h.53ZM358.97,373.47l.36-4.6c-3.67-2.94-8.55-1.13-13.03-2.9-2.6-1.03-4.7-4.76-7.23-2.45,1.34,3.48,1.4,1.71,3.1,2.25,5.1,1.63,9.99,4.53,15.7,3.43l1.09,4.28ZM289.5,369.11l-.76-4.25c-1.26.89-.58,2.3-.81,3.41-.12.58-1.71.07-1.08,1.43l2.64-.59ZM359.51,367.01c-.15-1-4.66-2.34-4.84-2.14l.36,1.6,4.48.54ZM269.12,370.75c-.72-1.05,3.26-5.81-1.09-5.35,1.24,2.4-.72,4.95-.54,7.53l10.76,1.07c-2.07-3.48-5.93-2.21-9.13-3.25ZM294.4,368.63c.38.33,2.13-.26,2.14-.8.02-1.63-3.19-.11-2.14.8ZM329.92,369.71h-3.77c2.01,1.64,2.68,2.5,2.07,5.3l-2.08.62,1.08,4.3c2.08.37.35-1.16.61-1.55.08-.13.9-.19,1.21-.64.91-1.34.65-2.59,2.87-3.08,3.61-.8,2.79,1.12,3.92,1.81.88.54,2.2-1.25,2.23.66l1.53-.71-3.19-3.76c-1.43.6-3.53-.54-4.55-.24-.84.25-.51,2.16-2.21,1.57-1.59-.55.95-3.07.26-4.3ZM342.83,374.01v-2.15h-.53v2.15h.53ZM354.13,371.86c-1.64-.46-2.61,3.22-2.15,3.76,1.64.46,2.61-3.22,2.15-3.76ZM299.77,375.62c.82-.77-3.06-3.9-4.3-3.22.26.95,3.64,3.85,4.3,3.22ZM322.91,373.48c-.81-.88-2.16,1.68-1.61,2.69.92-.1,2.12-2.12,1.61-2.69ZM318.08,381.55l1.34,1.07.81-1.33-2.68-3.5-.54,5.92,1.08-2.15ZM328.3,386.39l.54-5.91c-1.9.1-2.07,7.97-.54,5.91ZM337.99,389.08l2.58-5.75-.98-2.85c-.8.15-1.39,2.46-1.48,3.09-.26,1.84-.1,3.68-.12,5.52ZM317.61,388.63c.14-.24,1.81-.68,2.06-1.44-5.45-2.26-11.73-4.42-17.75-4.85,2.23,1.47,14.49,3,14.54,5.9l-1.07,3.5c1.93-.15,3.67,1.95,2.96,3.78-2.72-1.09-5.1-2.82-7.7-4.14-1.42-.72-3.5-.81-4.16-1.2-1.6-.95-4.93-4.95-5.15-6.99l-1.56-.04c.44,4.01,2.68,5.89,6.08,7.64,2.82,1.45,12.36,4.62,14.22,6.5.22.22,2.8,5.19,2.8,5.5,0,.94-1.71,4.64-1.97,6.61-.19,1.48-.2,2.94-.14,4.42,1.09-.22.9-1.12,1.07-1.89.48-2.14.58-4.79,1.09-7,.19-.83-.36-.94,1.06-.8,2.19,4.05,2.8,9.05,5.16,12.88.54.88,2.11,1.73,2.3,2.56.24,1.05-.91,3.11-.45,4.47,2.13.59.58-3.22,1.08-3.76l5.38,2.15c.63-.58-3.77-4.99-4.84-4.85l1.62-.53c-2.93-5.63,5.4-11.69.8-16.67-2.39,1.53-.76,3.38-.91,5.49-.1,1.36-1.34,7.77-1.76,9.05-.21.64-.58,1.16-1.09,1.59-3.47-3.13-4.12-8.15-6.1-12.19-.56-1.14-3.95-5.45-3.32-6.09,1.74.29,2.92.97,3.76-1.07-1.77,0-3.76.33-5.09-1.11-.74-.81-3.4-6.57-2.91-7.41ZM326.69,388.54c.2.26,1.42-.94,1.07-1.61-.2-.26-1.42.94-1.07,1.61ZM284.16,390.69v-1.07s-1.07.81-1.07.81l1.07.26ZM280.4,391.24h-1.07s0,1.07,0,1.07l1.07-1.07ZM338.52,395h-1.07s.81,1.61.81,1.61l.26-1.61ZM278.93,401.85c-.61-.62-.53-2.29-1.75-2.55l-.28,1.62c-1.4-.58-3.47-1.2-3.49,1.06,5.45-1.87,6.74,4.39,8.08,8.33-.02.47-2.66.23-2.16,1.89l17.75,4.85c.24-1.42-.23-.95-1.16-1.23-2.85-.85-10.85-1.69-12.83-3.88-1.55-1.71.77-3.23.55-5.11-1.91.26-2.98-.53-3.24-2.42-.1-.74,0-1.04.8-.8,3.52,1.04,7.15,5.1,11.34,5.35l6.16,7.02c.55-4.25-3.12-6.58-6.45-8.25-.44-.22-1.33.11-1.98-.22-1.7-.87-10.89-5.21-11.34-5.66ZM350.9,401.99c.16-.17.67-2.4.54-2.68-.72-.3-1.27,2.24-1.07,2.68.17-.03.46.07.53,0ZM354.67,423.52c1.04-2.98-.16-5.96-.01-8.85s2.18-11.21.31-13.24c-1.7-1.84-3.54-.98-2.93,1.59l2.09.85c-1.1,1.35-2.93,4.09-.53,4.85l-1.61.82,1.65,2.92c-3.02,3.04-.13,3.88.39,6.65.25,1.35-1.16,3.68.65,4.41ZM351.98,404.15h-6.09c-1.43,2.85,1.1.99,2.57,1.08,1.59.1,3.49,2.73,3.52-1.08ZM319.83,407.37c0-.37-.3-.66-.66-.66s-.66.3-.66.66.3.66.66.66.66-.3.66-.66ZM315.92,408.99v-1.07s-1.07.81-1.07.81l1.07.26ZM339.6,407.92h-1.07s0,1.07,0,1.07l1.07-1.07ZM341.75,408.46c-.54-.55-2.16,1.05-1.61,1.61s2.16-1.05,1.61-1.61ZM272.46,411.13c0-.37-.3-.66-.66-.66s-.66.3-.66.66.3.66.66.66.66-.3.66-.66ZM343.37,411.15c1.66,2.74,12.04,4.39,7.27-.53-1.79,2.89-4.52.29-7.27.53ZM270.18,418.14c1.67-1.05,2.33-4.52.8-5.92l-.8,5.92ZM281.47,421.37l.54-6.46-1.08,2.16-2.14-.54c-.48.54,1.92,4.34,2.68,4.84ZM272.87,423.51c.19-.19-1.35-4.64-2.15-4.84-.06,2.64-2.65,7.05-6.1,5.86-1.23-.43-.89-3.04-3.59-1.55v-1.62s-2.16,2.42-2.16,2.42l2.14-.27c-.01,3.11,3.74,3.27,6.1,2.58,1-.29,1.28-1.74,2.53-1.5l-.54,4.84h3.5c-.27-1.71-2.4-1.24-2.26-3.39.2-3.05,2.22-2.23,2.53-2.53ZM277.71,422.99c-.81-.88-2.16,1.68-1.61,2.69.92-.1,2.12-2.12,1.61-2.69ZM335.29,424.06v-1.07s-1.07.81-1.07.81l1.07.26ZM280.94,427.82l-.26-3.22c-1.03.76-.85,2.08-.81,3.22h1.07ZM331.53,426.21c-2.96.14-5.84-.84-8.71-1.26-4.13-.6-.34,2.1,1.66,2.57,1.28.3,3.74-.29,5.45.84l-1.1,4.03c.15,1.31,1.01,1.5,2.17,1.34-1.85-.95,1-7.15.54-7.52ZM294.93,427.83c-3.07.29-4.04,3.38-5.73,5.32-2.41-1.05-5.54-1.13-7.75-1.81-1.71-.52-3.12-3.06-5.31-2.4l-.58,2.62c2.47,1.09,5.27.2,7.76.59,1.88.3,3.43,2.18,5.68,1.58l-1.07,2.68c1.39.19,1.62-1.49,2.97-1.61,1.13-.1,2.69.91,4.03.54l-3.23-1.89,3.23-5.64ZM355.21,432.13c.33-.38-.26-2.13-.8-2.14-1.63-.02-.11,3.19.8,2.14ZM351.98,432.13h-1.07v1.61h1.07v-1.61ZM278.78,435.9l-.26-2.15c-.83.58-.94,1.16-.81,2.15h1.07ZM330.98,436.43v-1.61h-.53v1.61h.53ZM327.77,437.51c1.07-.29,1.21-1.15,1.07-2.15-1.07.29-1.21,1.15-1.07,2.15ZM269.1,440.74l1.06-.81-.8-.8-.26,1.61ZM281.48,445.58c1.43,1.38,4.94-5.09,4.3-5.92-1.44-.06-5,5.24-4.3,5.92ZM323.45,441.28v-1.61h-.53v1.61h.53ZM293.85,440.75h-1.07s0,1.07,0,1.07l1.07-1.07ZM276.09,443.44h-1.07s0,1.07,0,1.07l1.07-1.07Z"/>
            <path d="M265.86,382.07l-1.1.3c.48,1.26,1.29,3.27-.5,4.01v-5.92s1.6,1.61,1.6,1.61Z"/>
            <path class="cls-1" d="M278.93,401.85c.45.45,9.64,4.79,11.34,5.66.65.33,1.54,0,1.98.22,3.33,1.67,7,4,6.45,8.25l-6.16-7.02c-4.2-.24-7.82-4.31-11.34-5.35-.8-.24-.9.06-.8.8.26,1.89,1.33,2.69,3.24,2.42.22,1.88-2.1,3.41-.55,5.11,1.99,2.18,9.98,3.03,12.83,3.88.93.28,1.4-.19,1.16,1.23l-17.75-4.85c-.5-1.66,2.14-1.41,2.16-1.89-1.34-3.94-2.63-10.2-8.08-8.33.02-2.26,2.09-1.65,3.49-1.06l.28-1.62c1.22.26,1.14,1.93,1.75,2.55Z"/>
            <path class="cls-1" d="M272.87,423.51c-.31.31-2.33-.52-2.53,2.53-.14,2.15,1.99,1.69,2.26,3.4h-3.5s.54-4.84.54-4.84c-1.25-.24-1.53,1.21-2.53,1.5-2.36.69-6.11.53-6.1-2.58l-2.14.27,2.15-2.42v1.62c2.7-1.49,2.37,1.12,3.6,1.55,3.45,1.2,6.04-3.22,6.1-5.86.8.2,2.34,4.65,2.15,4.84Z"/>
            <path class="cls-1" d="M294.93,427.83l-3.23,5.64,3.23,1.89c-1.33.38-2.9-.64-4.03-.54-1.35.12-1.58,1.8-2.97,1.61l1.07-2.68c-2.25.59-3.8-1.29-5.68-1.58-2.49-.39-5.28.5-7.76-.59l.58-2.62c2.18-.66,3.6,1.87,5.31,2.4,2.2.68,5.34.76,7.75,1.81,1.69-1.95,2.66-5.03,5.73-5.32Z"/>
            <path class="cls-1" d="M284.7,356.25l.32,1.68,17.98,5.05c-4.43,2.21-10.47-2.01-15.07-3.22-2.21-.58-4.77-.51-6.49-1.05-1.81-.57-3.36-1.42-5.9-2.18-1.99-.59-3.83-1.62-5.9-1.9-.13-.94,1.91-.6,2.38-.5,3.31.71,7.29,2.62,11.04,2.97.84.08,1.43-1.09,1.64-.85Z"/>
            <path class="cls-1" d="M269.12,370.75c3.21,1.04,7.06-.22,9.13,3.25l-10.76-1.07c-.18-2.57,1.78-5.12.54-7.53,4.35-.46.37,4.3,1.09,5.35Z"/>
            <path class="cls-1" d="M281.48,445.58c-.7-.67,2.86-5.98,4.3-5.92.64.82-2.86,7.3-4.3,5.92Z"/>
            <path class="cls-1" d="M281.47,421.37c-.76-.5-3.16-4.3-2.68-4.84l2.14.54,1.08-2.16-.54,6.46Z"/>
            <path class="cls-1" d="M289.5,369.11l-2.64.59c-.63-1.36.96-.85,1.08-1.43.23-1.11-.46-2.52.81-3.41l.76,4.25Z"/>
            <path class="cls-1" d="M270.18,418.14l.8-5.92c1.53,1.4.87,4.87-.8,5.92Z"/>
            <path class="cls-1" d="M299.77,375.62c-.67.63-4.05-2.27-4.3-3.22,1.24-.68,5.12,2.45,4.3,3.22Z"/>
            <polygon class="cls-1" points="290.62 357.86 288.48 357.86 289.82 355.19 290.6 356.01 290.62 357.86"/>
            <path class="cls-1" d="M280.94,427.82h-1.07c-.04-1.15-.23-2.46.81-3.22l.26,3.22Z"/>
            <path class="cls-1" d="M277.71,422.99c.52.57-.69,2.58-1.61,2.69-.55-1.01.8-3.57,1.61-2.69Z"/>
            <path class="cls-1" d="M294.4,368.63c-1.05-.91,2.16-2.43,2.14-.8,0,.55-1.76,1.14-2.14.8Z"/>
            <polygon class="cls-1" points="289.01 361.64 288.47 364.32 287.94 364.32 287.94 361.64 289.01 361.64"/>
            <path class="cls-1" d="M278.78,435.9h-1.07c-.13-.99-.02-1.57.81-2.15l.26,2.15Z"/>
            <polygon class="cls-1" points="294.93 353.56 294.93 354.64 292.78 354.09 292.78 353.57 294.93 353.56"/>
            <polygon class="cls-1" points="271.25 361.64 270.71 363.78 270.18 363.78 270.18 361.64 271.25 361.64"/>
            <polygon class="cls-1" points="286.32 353.57 285.5 354.63 284.71 354.64 284.71 353.56 286.32 353.57"/>
            <polygon class="cls-1" points="276.09 359.48 275.02 359.48 275.83 357.87 276.09 359.48"/>
            <circle class="cls-1" cx="271.8" cy="411.13" r=".66"/>
            <polygon class="cls-1" points="269.1 440.74 269.36 439.13 270.16 439.93 269.1 440.74"/>
            <polygon class="cls-1" points="293.85 440.75 292.78 441.82 292.78 440.74 293.85 440.75"/>
            <rect class="cls-1" x="268.03" y="362.71" width=".53" height="1.61"/>
            <polygon class="cls-1" points="276.09 443.44 275.02 444.51 275.02 443.43 276.09 443.44"/>
            <polygon class="cls-1" points="280.4 391.24 279.33 392.31 279.33 391.23 280.4 391.24"/>
            <polygon class="cls-1" points="315.92 408.99 314.85 408.72 315.92 407.91 315.92 408.99"/>
            <polygon class="cls-1" points="284.16 390.69 283.09 390.43 284.16 389.62 284.16 390.69"/>
          </g>
          <rect class="cls-1" x="322.92" y="439.67" width=".53" height="1.61"/>
        </g>
        <g>
          <path d="M150.69,362.71c.19-.09.71.15,1.03-.03l.04-3.74-2.15,2.15v-15.07h94.18v29.6h-7.53l8.61,41.44h8.61v14.53c-4.1-1.04-8.11-2.52-12.34-1.66l-.59-4.26-1.11,4.51,4.35,1.41c.35,2.36-3.08.11-4.31.54l4.83,1.59.31-1.63,8.85,1.11v14.53h-55.43v-7.53l1.88,1.05,2.42-2.94-2.15-1.34.3,2.16-1.6.54c-.29-.06-.85-1.28-.85-1.36v-20.72h6.46s-.55-5.38-.55-5.38l-14.22-.03-.85,5.4h6.46v10.23l-2.16.81.02,1.35,2.15-1.08v18.84h-55.43c-.8-2.23,1.11-4.5,1.11-6.19,0-1.81-1.58-3.1-1.12-5.93.25-1.56,2.58-.49,2.7-3.7-.99-1.13-1.74-.49-2.69.22-.26-.34-.14-7.7,1.07-8.35-2.19-.76-.63-4.59-1.08-6.72,1.66-.48,7.98.92,8.62-.39l2.69-12.52,2.68,1.08-2.52-2.39c.46-4.05,4.49-5.51,3.07-9.98l1.06,1.07.54-2.69-2.14-.26,1.61-.82-.07-1.01-1.02-.38.25-1.87,2.46-.5-1.07-1.61h1.62s-1.07-.54-1.07-.54v-1.62s1.59,0,1.59,0c0,2.06,1.65,3.27,2.05,5.22.25,1.21-.12,2.63.12,3.53.13.51,1.16.62,1.54,1.25,1.26,2.06,1.33,4.88,3.84,5.59.63-.79-5.18-11.34-3.76-13.45l-1.61,1.07-1.08-1.88c2.21-.71.75-2.38,2.15-4.03l-2.69,1.07c0-.55.05-1.2-.16-1.71-1.41-3.46-1.27-4.42-5.26-3.89l-.51-2.47c-1.51.66-.92,3.34-3.22,2.69v-10.76l1.07.54c-.05-.88.09-1.81,0-2.69-.09.04-.41-.12-.49.04l-.58,1.58v-2.69c1.43-.16.97.05,1.07,1.07ZM189.99,355.17c-2-.15-4.41-.03-6.36-.32-1.11-.16-2.33-1.24-2.95-1.18-.29.03-3.41,1.37-3.61,2.03,3.96,1.22,9.44-.69,13.07.11,1.32.29,7.64,6.7,8.45,5.81.19-2.83-3.22-3.48-4.84-5.11l1.61-.8-5.92-1.62.55,1.07ZM152.84,356.25v-2.15h-.53v2.15h.53ZM165.22,355.71v-1.61c-.73-.19-.63.9-1.07,1.61h1.07ZM242.59,356.39l-7.94-1.75c-.36,4.13,1.88,2.01,3.78,2.39,1.14.23,2.77,1.87,4,1.93l.16-2.57ZM175.45,355.18l-3.22.54v.53s3.22-.54,3.22-.54v-.53ZM158.91,356.78c0-.37-.3-.66-.66-.66s-.66.3-.66.66.3.66.66.66.66-.3.66-.66ZM220.65,359.48l.54-3.23c-1.38.43-1.09,2.08-1.07,3.23h.53ZM231.89,382.04c-.66-2.92.34-6.12.03-8.78s-2.61-5.61-3.05-8.8c-.31-2.29-.05-4.57-.14-6.87-.02-.6.35-1.48-.53-1.33l-1.62,1.34c2.88,1.78,1.02,4.13,1.19,6.34.09,1.15,2.54,5.86,2.04,6.31h-1.62s1.08,2.69,1.08,2.69l-1.6-.54c.17,2.49-3.05,2.47-2.69,4.85,1.65-2.14,5.65-4.5,4.3,0h1.62s-1.07,6.46-1.07,6.46l.63-1.54,1.44-.12ZM210.98,358.95c-1.83.45-2.94-.83-4.55-1.1-.62.44-4.65-.91-4.59.29.05.95,7.13,1.28,8.34,1.88l.8-1.07ZM185.14,360.56c2.17,4.07,6.18-1.14,1.62-2.16l1.07,3.23-2.69-1.07ZM217.43,360.03l-3.22-.54v1.07s3.22,0,3.22,0v-.53ZM231.42,359.48c-1.89-.28-2.26.34-.8,1.6l.8-1.6ZM219.04,367.02l1.07-7-2.14.54,1.1.88c.75,1.48-2.67,5.76-.03,5.58ZM225.5,361.64c-2.16-.69-2.87,2.52-1.34,3.76l1.34-3.76ZM163.66,369.66l.48-5.33c-1.25.44-.79,4.54-1.08,4.84-.33.34-2.81-.63-2.68.54,1.55.16,2.21,1.18,2.15,2.69l.81-1.64,5.64.56c.39-1.65-.4-.66-.89-.76-1.47-.31-2.97-.56-4.44-.9ZM155,374.01c4.42-.04,4.02-5.33,3.76-8.61l-1.1,6.96-2.35.02-.32,1.62ZM154.47,366.48c.1,1.66.27,3.47-1.88,3.26-2.37-.23-.53-3.01-1.88-3.8l.61,4.76h3.62s1.1-3.37,1.1-3.37l-1.56-.86ZM183.51,369.71c-2.64-.65.79,4.98,1.07,5.15l2.99-1.37c.94-2.5-1.32.73-2.41-.04l-1.65-3.74ZM193.21,369.71l-1.61.26,1.61.81v-1.07ZM224.77,373.28c.4-.42,1.29-1.65,1.21-2.15l-1.54-1.42.54,2.69c-1.53-.03-2.47.4-2.15,2.16.07.09,1.69-.99,1.95-1.27ZM174.37,371.86l-.26-1.07-.81,1.07h1.07ZM208.82,371.86l-1.65.3-.77-1.37c-1.64,1.64-2.03,3.23.81,3.23l-1.07,3.22c2.11.47,3.22-4.75,2.69-5.38ZM169.46,373.38l-4.77-.71c1.44,1.01,3.42.86,4.97,1.48.99.39,1.78,2.11,2.56,1.21l-2.68-2.96-.08.98ZM173.99,373.25l-.23.74,4.15,1.31.23-.74-4.15-1.31ZM193.75,375.09c-1.55-.26-.89.33-1.15,1.24-.43,1.52-.58,3.15-1,4.67,1.63.27.86-.41,1.09-1.31.39-1.51.63-3.1,1.06-4.61ZM174.37,375.63c-.98-.18-1.78.59-1.61,1.61l1.61.54v-2.15ZM199.67,392.85c.47-.47-1.85-11.4-2.24-13.1-.16-.7-.11-2.5-.98-2.51l-2.7,15.6h5.92ZM201.82,377.25l-1.08.26-.53,1.35h1.07s.54-1.61.54-1.61ZM165.22,379.39v-1.61h-.53v1.61h.53ZM236.27,380.47h-1.07s0,3.22,0,3.22h.53s.54-3.22.54-3.22ZM162.07,382.45l-.12.71,6.41,1.12.12-.71-6.41-1.12ZM187.3,384.24c.2.26,1.42-.94,1.07-1.61-.2-.26-1.42.94-1.07,1.61ZM181.92,395.54c3.46-2.15,1.2-7.72,1.6-11.3l-1.6,11.3ZM191.06,384.49l-1.68,6.12,1.07.29,1.68-6.12-1.07-.29ZM168.99,385.86h-1.07s0,1.07,0,1.07l1.07-1.07ZM157.69,386.93l-1.07,3.76c1.34-.38.65-2.75,1.07-3.76ZM223.36,389.62l-.77,2.62.87.26.77-2.62-.87-.26ZM169.82,393.64c-.76-.5-1.37-1.49-2.44-1.32,1.78,1.34,2.03,4.95,4.57,4.3,2.06-.53-1.52-2.57-2.13-2.97ZM168.45,396.07c.26-2.11-1.35-2.94-3.23-2.68.18.62,2.68,3.28,3.23,2.68ZM200.21,393.93h-1.61s0,1.07,0,1.07c.71-.44,1.79-.34,1.61-1.07ZM223.88,396.61l-.26-1.61-.8.8,1.06.81ZM200.21,398.76c.2-1.22-.18-2.27-1.61-2.15v2.15s1.61,0,1.61,0ZM229.81,400.91c-.26-.98-3.64-3.81-4.3-3.22v1.88s4.3,1.35,4.3,1.35ZM162.53,400.92c.14-1,0-1.86-1.07-2.15v2.15s1.07,0,1.07,0ZM166.83,404.13c.17-.23-2.15-3.61-1.07-5.37-.11-.15-.72.3-.82.53-.57,1.4.95,7.22.17,8.51l-2.84,2.26c-1.29-.56.34-2.97-1.89-2.68l1.07,5.38-2.38-1.07-.84,1.06,1.62.28-1.11,1.11.57,1.3-3.23.28,2.67.29.56,5.9.54-6.99c1.98,1.33,1.09-2.2,2.41-1.61l1.89,2.96,1.08-.56-2.15-5.1,2.63-.61c.45-.53-.26-4.34.06-5.51.14-.5,1.04-.32,1.07-.36ZM220.66,399.31h-1.61s0,3.76,0,3.76c1.83.4.95-2.81,1.61-3.76ZM160.92,401.46c-2.59.45-4.64-.98-6.99-1.62-.48,1.27,2.9,1.9,3.62,2.02.67.12,3.24.66,3.37-.41ZM241.65,406.29c-1.83-2.2-3.33-3.13-3.75-6.22l-6.48,1.66c2.87,2.51,6.52,3.7,10.22,4.57ZM196.98,402.54l-4.3-.54,2.08,1.69.08,2.07c.89-.14,2.53-2.67,2.15-3.22ZM170.6,404.15l-2.68-.54,1.88,2.69.8-2.15ZM191.2,404.14c0-.37-.3-.66-.66-.66s-.66.3-.66.66.3.66.66.66.66-.3.66-.66ZM153.92,408.99v-2.15s-2.15,1.09-2.15,1.09v1.06s2.15,0,2.15,0ZM193.75,408.45l-.26-1.07-.81,1.07h1.07ZM220.12,407.38c-.92-.44-3.88.95-2.69,2.14.97.97,2.49-1.49,2.69-2.14ZM191.59,407.92h-1.07s.81,1.07.81,1.07l.26-1.07ZM171.69,416.52c1.72,2.01,2.97-8.55-.54-8.07-1.33,3.02,2.1,4.67.54,8.07ZM215.28,408.46h-1.07s0,1.07,0,1.07l1.07-1.07ZM230.22,426.86c-.15-.25-.97-.3-1.2-.64-1.14-1.76.22-6.8.25-8.88.01-.91-.56-1.79-.54-2.69.03-1.77,2-5.86-1.07-6.18v15.6s-2.69.8-2.69.8c4.86,3.41,2.28,9.85,3.77,14.81,1.02-.21.96-1.06,1.08-1.87.18-1.25.69-10.47.4-10.93ZM181.37,411.68h-1.07s0,2.15,0,2.15c1.07-.29,1.21-1.15,1.07-2.15ZM238.97,416.53c2.35-.64,3.07-1.16,2.68-3.77l-3.76.54,1.08,3.23ZM167.91,415.45l-1.08-1.88-1.61-.27c.24.44,2.25,2.59,2.69,2.14ZM216.9,418.68l2.61-2.53c.26-.99-.53-2.18-1.27-2.84-.81-.01-1.34,4.45-1.34,5.37ZM151.77,420.29c-.9-2.48,2.39-4.53.27-6.45l-.8,4.58.53,1.87ZM179.75,419.21l-.26-3.76c-1.15.62-.82,3.34.26,3.76ZM169.53,415.99h-1.07s.81,1.07.81,1.07l.26-1.07ZM171.68,423.52c.7-1.93.7-3.45,0-5.38-.68,1.72-4.11.97-4.3,1.89-.23,1.13,3.61,2.5,4.3,3.49ZM194.29,418.68c-.9-.73-2.74,1.57-3.23,2.14.78.88,4.06-1.47,3.23-2.14ZM216.89,424.59l-.53-5.37c-.26,1.74-2.59,5.08.53,5.37ZM151.23,422.44v-1.61h-.53v1.61h.53ZM165.22,424.59l-.26-2.68c-1.47,1.55-5.05,1.03-4.58,3.76,2.15.12,3.66-.32,3.77-2.68l1.06,1.61ZM174.37,424.06l-.54-2.15h-.52l-.54,2.15h1.61ZM150.69,423.53l-3.76-.55c.67,1.62,3.24.46,3.24,2.68l.52-2.13ZM247.03,423.52c-2.08.03-2.36,2.09-2.15,3.76,1.48.58,2.36-3.53,2.15-3.76ZM172.22,428.37c-1.94-1.73-2.25,3.51-.26,1.08.28-.35.4-.95.26-1.08ZM160.39,428.9l-.22,1.09,2.84.57.22-1.09-2.84-.57ZM148,431.06l-1.61,3.76c.3.13,1.15-1.57,1.19-1.67.25-.65.72-1.09.42-2.09ZM182.45,434.28c-.24-.33-.29-.9-.87-.98l-1.82.45.54,1.61h1.07c-.08.08-.66,2.02-.53,2.15l2.15-.26-1.61,1.61c.6.91,2.32,1.62,3.08.67,2.13-2.68-.49-2.41-.8-2.65-.27-.2-.61-1.78-1.21-2.6ZM161.46,434.82l-.26-1.07-.81,1.07h1.07ZM146.06,436.76c-.44-.43-1.1-2.08-1.27-.06-.06.75,1.35,2.02,2.14,1.35.95-.82-.66-1.09-.87-1.29ZM162.53,435.9h-2.15s0,.53,0,.53c1.03-.08,1.82-.09,1.62,1.08h.52s0-1.61,0-1.61ZM164.69,435.9h-1.07v1.61h1.07v-1.61ZM213.66,435.9h-1.07s.81,1.61.81,1.61l.26-1.61ZM180.29,437.51h-2.68c.55,2.38-2.36.9-1.91,3.77l1.89.52,2.71-4.29ZM209.9,437.52c-1.12,1.02,4.91,3.67,4.83,1.88l-4.83-1.88ZM149.07,439.66v-1.61h-.53v1.61h.53ZM166.3,440.74v-2.15h-.53v2.15h.53ZM241.1,441.81c.36-1.27,1.12-2.65-.53-3.22v3.23s.53,0,.53,0ZM191.06,439.13h-1.61s0,1.07,0,1.07h.8s.82-1.07.82-1.07ZM160.92,440.74c.26-.2-.94-1.42-1.61-1.07-.26.2.94,1.42,1.61,1.07ZM166.84,441.28h-4.3s.54,2.15.54,2.15l3.22-1.08.53,1.62v-2.69ZM150.69,441.82h-1.07s0,1.61,0,1.61l1.07-.82v-.8ZM177.27,443.22c-.32-.32-.07-1.02-.47-.86l-1.34,1.34,2.68.8c.36-1.37-.47-.9-.87-1.29ZM233.57,445.04c.46-1.49-3.19-3.26-3.76-2.68l.62,2.61,3.14.08ZM183.52,442.9h-1.61v.53h1.61v-.53ZM174.91,443.44h-2.69s0,.53,0,.53c1.14.03,2.29.95,2.69-.53ZM189.98,443.97c-.56-.55-2.16,1.07-1.61,1.61s2.16-1.07,1.61-1.61ZM199.81,445.04c0-.37-.3-.66-.66-.66s-.66.3-.66.66.3.66.66.66.66-.3.66-.66Z"/>
          <path d="M182.45,434.28c1.14,1.14-1,1-1.08,1.08-.39-.71.47-1.68,1.08-1.08Z"/>
          <path class="cls-1" d="M230.22,426.86c.29.46-.22,9.68-.4,10.93-.11.8-.06,1.66-1.08,1.87-1.49-4.95,1.09-11.4-3.77-14.81l2.69-.8v-15.6c3.07.32,1.11,4.41,1.07,6.18-.02.9.56,1.79.54,2.69-.03,2.09-1.39,7.12-.25,8.88.22.34,1.04.4,1.2.64Z"/>
          <path class="cls-1" d="M199.67,392.85h-5.92s2.7-15.6,2.7-15.6c.87,0,.82,1.81.98,2.51.39,1.69,2.71,12.62,2.24,13.1Z"/>
          <path class="cls-1" d="M166.83,404.13s-.93-.14-1.07.36c-.32,1.17.4,4.98-.06,5.51l-2.63.61,2.15,5.1-1.08.56-1.89-2.96c-1.32-.59-.43,2.94-2.41,1.61l-.54,6.99-.56-5.9-2.67-.29,3.23-.28-.57-1.3,1.11-1.11-1.62-.28.84-1.06,2.38,1.07-1.07-5.38c2.23-.29.6,2.12,1.89,2.68l2.84-2.26c.78-1.29-.74-7.11-.17-8.51.1-.24.71-.68.82-.53-1.08,1.76,1.24,5.14,1.07,5.37Z"/>
          <path class="cls-1" d="M189.99,355.17l-.55-1.07,5.92,1.62-1.61.8c1.62,1.63,5.03,2.29,4.84,5.11-.81.89-7.14-5.52-8.45-5.81-3.63-.8-9.11,1.11-13.07-.11.2-.66,3.32-2,3.61-2.03.62-.07,1.85,1.01,2.95,1.18,1.95.29,4.36.17,6.36.32Z"/>
          <path class="cls-1" d="M231.89,382.04l-1.44.12-.63,1.54,1.07-6.45h-1.62c1.35-4.5-2.65-2.14-4.3,0-.36-2.38,2.86-2.36,2.69-4.85l1.6.54-1.08-2.68h1.62c.5-.46-1.95-5.16-2.04-6.32-.18-2.21,1.69-4.56-1.19-6.34l1.62-1.34c.88-.15.5.73.53,1.33.09,2.29-.17,4.58.14,6.87.43,3.2,2.74,6.11,3.05,8.8s-.7,5.86-.03,8.78ZM231.42,375.62v-1.61h-.53v1.61h.53Z"/>
          <path class="cls-1" d="M241.65,406.29c-3.7-.87-7.35-2.06-10.22-4.57l6.48-1.66c.42,3.09,1.91,4.02,3.75,6.22Z"/>
          <path class="cls-1" d="M242.59,356.39l-.16,2.57c-1.22-.06-2.86-1.7-4-1.93-1.89-.38-4.14,1.74-3.78-2.39l7.94,1.75Z"/>
          <path class="cls-1" d="M171.68,423.52c-.68-.99-4.53-2.36-4.3-3.49.19-.92,3.61-.17,4.3-1.89.7,1.92.7,3.45,0,5.38Z"/>
          <path class="cls-1" d="M171.69,416.52c1.56-3.4-1.87-5.05-.54-8.07,3.5-.48,2.25,10.08.54,8.07Z"/>
          <path class="cls-1" d="M208.82,371.86c.53.63-.57,5.85-2.69,5.38l1.07-3.22c-2.84,0-2.44-1.6-.81-3.23l.77,1.37,1.65-.3Z"/>
          <path class="cls-1" d="M182.45,434.28c.6.82.94,2.39,1.21,2.6.31.23,2.94-.03.8,2.65-.76.95-2.49.24-3.08-.67l1.61-1.61-2.15.26c-.12-.13.45-2.07.53-2.15s2.21.06,1.08-1.08Z"/>
          <path class="cls-1" d="M182.45,434.28c-.6-.6-1.47.36-1.08,1.08h-1.07s-.54-1.61-.54-1.61l1.82-.45c.58.08.63.65.87.98Z"/>
          <path class="cls-1" d="M154.47,366.48l1.56.86-1.1,3.37h-3.62s-.61-4.77-.61-4.77c1.36.78-.49,3.57,1.88,3.8,2.15.21,1.98-1.6,1.88-3.26Z"/>
          <path class="cls-1" d="M163.66,369.66c1.46.34,2.97.6,4.44.9.49.1,1.28-.89.89.76l-5.64-.56-.81,1.64c.05-1.51-.61-2.53-2.15-2.69-.13-1.16,2.35-.2,2.68-.54.29-.29-.17-4.4,1.08-4.84l-.48,5.33Z"/>
          <path class="cls-1" d="M181.92,395.54l1.6-11.3c-.4,3.58,1.86,9.15-1.6,11.3Z"/>
          <path class="cls-1" d="M210.98,358.95l-.8,1.07c-1.21-.6-8.29-.93-8.34-1.88-.07-1.2,3.96.15,4.59-.29,1.62.27,2.72,1.55,4.55,1.1Z"/>
          <path class="cls-1" d="M183.51,369.71l1.65,3.74c1.09.77,3.35-2.46,2.41.04l-2.99,1.37c-.28-.17-3.71-5.8-1.07-5.15Z"/>
          <path class="cls-1" d="M165.22,424.59l-1.06-1.61c-.11,2.36-1.62,2.8-3.77,2.68-.47-2.73,3.11-2.2,4.58-3.76l.26,2.68Z"/>
          <path class="cls-1" d="M180.29,437.51l-2.71,4.29-1.89-.52c-.44-2.87,2.46-1.39,1.91-3.78h2.68Z"/>
          <path class="cls-1" d="M238.97,416.53l-1.08-3.23,3.76-.54c.39,2.61-.33,3.13-2.68,3.77Z"/>
          <path class="cls-1" d="M216.9,418.68c0-.92.53-5.38,1.34-5.37.74.65,1.53,1.84,1.27,2.84l-2.61,2.53Z"/>
          <path class="cls-1" d="M196.98,402.54c.38.55-1.26,3.08-2.15,3.22l-.08-2.07-2.08-1.69,4.3.54Z"/>
          <path class="cls-1" d="M155,374.01l.32-1.62,2.35-.02,1.1-6.96c.26,3.28.67,8.57-3.76,8.61Z"/>
          <path class="cls-1" d="M169.82,393.64c.61.4,4.19,2.44,2.13,2.97-2.53.65-2.79-2.96-4.57-4.3,1.07-.17,1.68.82,2.44,1.32Z"/>
          <path class="cls-1" d="M233.57,445.04l-3.14-.08-.62-2.61c.57-.57,4.22,1.19,3.76,2.68Z"/>
          <path class="cls-1" d="M229.81,400.91l-4.31-1.35v-1.88c.67-.59,4.05,2.24,4.31,3.22Z"/>
          <path class="cls-1" d="M219.04,367.02c-2.65.19.78-4.1.03-5.58l-1.1-.88,2.14-.54-1.07,7Z"/>
          <path class="cls-1" d="M209.9,437.52l4.83,1.88c.08,1.79-5.95-.86-4.83-1.88Z"/>
          <polygon class="cls-1" points="166.84 441.28 166.84 443.97 166.3 442.35 163.08 443.43 162.54 441.28 166.84 441.28"/>
          <path class="cls-1" d="M225.5,361.64l-1.34,3.76c-1.54-1.24-.83-4.45,1.34-3.76Z"/>
          <path class="cls-1" d="M247.03,423.52c.21.23-.66,4.34-2.15,3.76-.22-1.67.07-3.73,2.15-3.76Z"/>
          <rect class="cls-1" x="187.59" y="387.13" width="6.35" height="1.11" transform="translate(-233.54 469.31) rotate(-74.69)"/>
          <path class="cls-1" d="M216.89,424.59c-3.12-.3-.79-3.63-.53-5.37l.53,5.37Z"/>
          <path class="cls-1" d="M168.45,396.07c-.54.6-3.05-2.06-3.23-2.68,1.88-.26,3.48.58,3.23,2.68Z"/>
          <path class="cls-1" d="M193.75,375.09c-.43,1.5-.67,3.09-1.06,4.61-.23.89.54,1.58-1.09,1.31.42-1.52.57-3.15,1-4.67.26-.91-.4-1.5,1.15-1.24Z"/>
          <path class="cls-1" d="M160.92,401.46c-.13,1.06-2.69.52-3.37.41-.73-.13-4.1-.76-3.62-2.02,2.35.64,4.4,2.07,6.99,1.62Z"/>
          <path class="cls-1" d="M220.66,399.31c-.66.95.22,4.16-1.61,3.76v-3.77s1.61,0,1.61,0Z"/>
          <path class="cls-1" d="M148,431.06c.31,1.01-.17,1.44-.42,2.09-.04.1-.88,1.79-1.19,1.67l1.61-3.76Z"/>
          <path class="cls-1" d="M194.29,418.68c.83.67-2.45,3.03-3.23,2.14.49-.57,2.33-2.87,3.23-2.14Z"/>
          <path class="cls-1" d="M220.12,407.38c-.2.66-1.71,3.12-2.69,2.14-1.19-1.19,1.76-2.58,2.69-2.14Z"/>
          <path class="cls-1" d="M185.14,360.56l2.69,1.07-1.07-3.23c4.57,1.01.56,6.22-1.62,2.16Z"/>
          <path class="cls-1" d="M169.46,373.38l.08-.98,2.68,2.96c-.78.9-1.56-.82-2.56-1.21-1.56-.62-3.54-.47-4.97-1.48l4.77.71Z"/>
          <polygon class="cls-1" points="170.6 404.15 169.8 406.3 167.92 403.61 170.6 404.15"/>
          <path class="cls-1" d="M177.27,443.22c.39.39,1.23-.08.87,1.29l-2.68-.8,1.34-1.34c.41-.16.15.54.47.86Z"/>
          <path class="cls-1" d="M150.69,423.53l-.52,2.13c0-2.22-2.56-1.07-3.24-2.68l3.76.55Z"/>
          <polygon class="cls-1" points="153.92 408.99 151.77 408.99 151.78 407.92 153.92 406.84 153.92 408.99"/>
          <path class="cls-1" d="M200.21,398.76h-1.61s0-2.15,0-2.15c1.43-.12,1.81.93,1.61,2.15Z"/>
          <path class="cls-1" d="M157.69,386.93c-.42,1.01.27,3.38-1.07,3.76l1.07-3.76Z"/>
          <path class="cls-1" d="M151.77,420.29l-.53-1.87.8-4.58c2.11,1.92-1.17,3.97-.27,6.45Z"/>
          <path class="cls-1" d="M224.77,373.28c-.26.28-1.88,1.36-1.95,1.27-.32-1.75.62-2.19,2.15-2.16l-.54-2.69,1.54,1.42c.09.5-.81,1.73-1.21,2.15Z"/>
          <path class="cls-1" d="M179.75,419.21c-1.08-.42-1.42-3.14-.26-3.76l.26,3.76Z"/>
          <rect class="cls-1" x="164.85" y="380.11" width=".72" height="6.5" transform="translate(-240.91 479.95) rotate(-80.06)"/>
          <path class="cls-1" d="M167.91,415.45c-.43.44-2.45-1.7-2.69-2.14l1.61.27,1.08,1.88Z"/>
          <path class="cls-1" d="M174.37,375.63v2.15s-1.61-.54-1.61-.54c-.17-1.02.63-1.78,1.61-1.61Z"/>
          <polygon class="cls-1" points="217.43 360.03 217.43 360.55 214.2 360.55 214.21 359.48 217.43 360.03"/>
          <path class="cls-1" d="M146.06,436.76c.21.2,1.82.47.87,1.29-.79.68-2.2-.59-2.14-1.35.17-2.03.83-.37,1.27.06Z"/>
          <path class="cls-1" d="M241.1,441.81h-.53s0-3.22,0-3.22c1.65.57.88,1.95.53,3.22Z"/>
          <path class="cls-1" d="M172.22,428.37c.14.13.02.73-.26,1.08-1.98,2.44-1.68-2.8.26-1.08Z"/>
          <rect class="cls-1" x="161.14" y="428.28" width="1.12" height="2.9" transform="translate(-291.48 503.54) rotate(-78.63)"/>
          <polygon class="cls-1" points="174.37 424.06 172.76 424.06 173.31 421.91 173.83 421.91 174.37 424.06"/>
          <path class="cls-1" d="M220.65,359.48h-.53c-.03-1.15-.32-2.79,1.07-3.23l-.54,3.23Z"/>
          <polygon class="cls-1" points="236.27 380.47 235.72 383.69 235.2 383.7 235.19 380.47 236.27 380.47"/>
          <rect class="cls-1" x="222.05" y="390.6" width="2.73" height=".91" transform="translate(-214.65 495.67) rotate(-73.69)"/>
          <path class="cls-1" d="M181.37,411.68c.14,1,0,1.86-1.07,2.15v-2.15s1.07,0,1.07,0Z"/>
          <path class="cls-1" d="M231.42,359.48l-.8,1.6c-1.45-1.26-1.09-1.88.8-1.6Z"/>
          <path class="cls-1" d="M162.53,400.92h-1.07s0-2.15,0-2.15c1.07.29,1.21,1.15,1.07,2.15Z"/>
          <path class="cls-1" d="M189.98,443.97c.55.54-1.05,2.16-1.61,1.61s1.05-2.16,1.61-1.61Z"/>
          <rect class="cls-1" x="175.56" y="372.09" width=".77" height="4.35" transform="translate(-233.87 429.81) rotate(-72.54)"/>
          <polygon class="cls-1" points="201.82 377.25 201.28 378.85 200.21 378.85 200.74 377.51 201.82 377.25"/>
          <path class="cls-1" d="M174.91,443.44c-.4,1.48-1.55.56-2.69.53v-.53s2.69,0,2.69,0Z"/>
          <path class="cls-1" d="M162.53,435.9v1.61s-.53,0-.53,0c.2-1.17-.59-1.16-1.62-1.08v-.53s2.15,0,2.15,0Z"/>
          <rect class="cls-1" x="163.61" y="435.9" width="1.07" height="1.61"/>
          <polygon class="cls-1" points="193.21 369.71 193.21 370.78 191.6 369.97 193.21 369.71"/>
          <polygon class="cls-1" points="191.06 439.13 190.24 440.2 189.45 440.2 189.45 439.13 191.06 439.13"/>
          <polygon class="cls-1" points="213.66 435.9 213.4 437.51 212.59 435.9 213.66 435.9"/>
          <polygon class="cls-1" points="150.69 441.82 150.69 442.62 149.62 443.43 149.62 441.82 150.69 441.82"/>
          <path class="cls-1" d="M187.3,384.24c-.36-.67.86-1.88,1.07-1.61.36.67-.86,1.88-1.07,1.61Z"/>
          <path class="cls-1" d="M200.21,393.93c.19.73-.9.63-1.61,1.07v-1.07s1.61,0,1.61,0Z"/>
          <polygon class="cls-1" points="223.88 396.61 222.82 395.81 223.62 395 223.88 396.61"/>
          <circle class="cls-1" cx="199.14" cy="445.04" r=".66"/>
          <circle class="cls-1" cx="190.53" cy="404.14" r=".66"/>
          <rect class="cls-1" x="152.32" y="354.1" width=".53" height="2.15"/>
          <path class="cls-1" d="M165.22,355.71h-1.07c.44-.71.34-1.8,1.07-1.61v1.61Z"/>
          <circle class="cls-1" cx="158.24" cy="356.78" r=".66"/>
          <rect class="cls-1" x="165.77" y="438.59" width=".53" height="2.15"/>
          <path class="cls-1" d="M160.92,440.74c-.67.36-1.88-.86-1.61-1.07.67-.36,1.88.86,1.61,1.07Z"/>
          <rect class="cls-1" x="164.69" y="377.78" width=".53" height="1.61"/>
          <polygon class="cls-1" points="174.37 371.86 173.3 371.85 174.11 370.78 174.37 371.86"/>
          <rect class="cls-1" x="181.91" y="442.9" width="1.61" height=".53"/>
          <polygon class="cls-1" points="161.46 434.82 160.38 434.82 161.19 433.75 161.46 434.82"/>
          <rect class="cls-1" x="150.7" y="420.83" width=".53" height="1.61"/>
          <polygon class="cls-1" points="175.45 355.18 175.45 355.71 172.23 356.25 172.23 355.72 175.45 355.18"/>
          <polygon class="cls-1" points="193.75 408.45 192.67 408.45 193.48 407.38 193.75 408.45"/>
          <polygon class="cls-1" points="191.59 407.92 191.33 408.99 190.52 407.92 191.59 407.92"/>
          <rect class="cls-1" x="148.55" y="438.05" width=".53" height="1.61"/>
          <polygon class="cls-1" points="169.53 415.99 169.27 417.06 168.46 415.99 169.53 415.99"/>
          <polygon class="cls-1" points="215.28 408.46 214.21 409.53 214.2 408.46 215.28 408.46"/>
          <polygon class="cls-1" points="168.99 385.86 167.92 386.93 167.92 385.85 168.99 385.86"/>
          <rect x="230.89" y="374.01" width=".53" height="1.61"/>
        </g>
      </g>
    </g>
    <circle cx="137.79" cy="473.56" r=".66"/>
  </g>
</svg>